<?xml version="1.0" encoding="utf-8"?>
<!-- Generator: Adobe Illustrator 25.2.1, SVG Export Plug-In . SVG Version: 6.00 Build 0)  -->
<svg version="1.1" id="Warstwa_1" xmlns="http://www.w3.org/2000/svg" xmlns:xlink="http://www.w3.org/1999/xlink" x="0px" y="0px"
	 viewBox="0 0 528 48" style="enable-background:new 0 0 528 48;" xml:space="preserve">
<style type="text/css">
	.st0{fill:#FFFFFF;}
	.st1{fill:#1D1D1B;}
	.st2{fill:#FAB90F;}
	.st3{fill:none;}
	.st4{fill:none;stroke:#1D1D1B;stroke-width:1.1;stroke-miterlimit:10;stroke-dasharray:10;}
</style>
<g id="BEE">
	<g>
		<ellipse transform="matrix(0.2835 -0.959 0.959 0.2835 -0.8989 26.0877)" class="st0" cx="17" cy="13.6" rx="7.5" ry="3.7"/>
		<path class="st1" d="M20.6,14.7c-0.2,0.7-0.5,1.4-0.8,2.1c-0.3,0.7-0.6,1.4-1.1,2c-0.2,0.3-0.4,0.6-0.7,0.9
			c-0.3,0.3-0.6,0.6-0.9,0.8c-0.3,0.2-0.7,0.4-1.1,0.5c-0.2,0.1-0.4,0.1-0.6,0.1c-0.2,0-0.4,0-0.6-0.1c-0.2-0.1-0.4-0.2-0.6-0.3
			c-0.2-0.1-0.3-0.3-0.5-0.4c-0.3-0.3-0.4-0.7-0.6-1C13,19,13,18.6,12.9,18.2c-0.1-0.4-0.1-0.8-0.1-1.1c0-0.8,0-1.5,0.1-2.3
			c0-0.4,0.1-0.8,0.2-1.1c0.1-0.4,0.2-0.7,0.2-1.1c0.4-1.5,1-2.9,1.9-4.2c0.5-0.6,1-1.2,1.6-1.7c0.3-0.2,0.7-0.4,1.1-0.5
			C18.1,6,18.4,6,18.6,6c0.2,0,0.4,0,0.7,0.1c0.2,0.1,0.4,0.2,0.6,0.3c0.2,0.1,0.3,0.3,0.5,0.4c0.3,0.3,0.5,0.7,0.6,1.1
			c0.1,0.4,0.2,0.8,0.3,1.2c0.1,0.4,0.1,0.8,0.1,1.2c0,0.8-0.1,1.5-0.2,2.3C21,13.2,20.8,14,20.6,14.7z M20.5,14.7
			c0.4-1.4,0.6-3,0.4-4.5c-0.1-0.7-0.3-1.5-0.5-2.1c-0.1-0.3-0.3-0.6-0.5-0.9c-0.1-0.1-0.2-0.2-0.4-0.3c-0.1-0.1-0.3-0.1-0.4-0.2
			c-0.1,0-0.3-0.1-0.5-0.1c-0.2,0-0.3,0-0.5,0.1c-0.3,0.1-0.6,0.2-0.9,0.4c-0.6,0.4-1.1,0.9-1.5,1.5c-0.4,0.6-0.8,1.2-1.2,1.9
			c-0.2,0.3-0.3,0.7-0.5,1c-0.1,0.3-0.3,0.7-0.4,1c-0.2,0.7-0.4,1.4-0.5,2.2c-0.1,0.7-0.2,1.5-0.1,2.2c0.1,0.7,0.2,1.5,0.5,2.2
			c0.2,0.3,0.4,0.6,0.6,0.9c0.1,0.1,0.3,0.2,0.4,0.3c0.1,0.1,0.3,0.1,0.5,0.2c0.2,0,0.3,0.1,0.5,0.1c0.2,0,0.3,0,0.5-0.1
			c0.3-0.1,0.6-0.3,0.9-0.4c0.6-0.4,1.1-0.9,1.6-1.5C19.4,17.5,20.1,16.1,20.5,14.7z"/>
	</g>
	<g>
		<ellipse transform="matrix(0.2835 -0.959 0.959 0.2835 -1.2213 30.896)" class="st0" cx="20.1" cy="16.3" rx="7.5" ry="3.7"/>
		<path class="st1" d="M23.7,17.3c-0.2,0.7-0.5,1.4-0.8,2.1c-0.3,0.7-0.6,1.4-1.1,2c-0.2,0.3-0.4,0.6-0.7,0.9
			c-0.3,0.3-0.6,0.6-0.9,0.8c-0.3,0.2-0.7,0.4-1.1,0.5c-0.2,0.1-0.4,0.1-0.6,0.1c-0.2,0-0.4,0-0.6-0.1c-0.2-0.1-0.4-0.2-0.6-0.3
			c-0.2-0.1-0.3-0.3-0.5-0.4c-0.3-0.3-0.4-0.7-0.6-1c-0.1-0.4-0.2-0.7-0.3-1.1c-0.1-0.4-0.1-0.8-0.1-1.1c0-0.8,0-1.5,0.1-2.3
			c0-0.4,0.1-0.8,0.2-1.1c0.1-0.4,0.2-0.7,0.2-1.1c0.4-1.5,1-2.9,1.9-4.2c0.5-0.6,1-1.2,1.6-1.7C20.2,9,20.6,8.8,21,8.7
			c0.2-0.1,0.4-0.1,0.6-0.1c0.2,0,0.4,0,0.7,0.1c0.2,0.1,0.4,0.2,0.6,0.3c0.2,0.1,0.3,0.3,0.5,0.4c0.3,0.3,0.5,0.7,0.6,1.1
			c0.1,0.4,0.2,0.8,0.3,1.2c0.1,0.4,0.1,0.8,0.1,1.2c0,0.8-0.1,1.5-0.2,2.3C24.1,15.9,23.9,16.6,23.7,17.3z M23.6,17.3
			c0.4-1.4,0.6-3,0.4-4.5c-0.1-0.7-0.3-1.5-0.5-2.1c-0.1-0.3-0.3-0.6-0.5-0.9c-0.1-0.1-0.2-0.2-0.4-0.3c-0.1-0.1-0.3-0.1-0.4-0.2
			c-0.1,0-0.3-0.1-0.5-0.1c-0.2,0-0.3,0-0.5,0.1c-0.3,0.1-0.6,0.2-0.9,0.4c-0.6,0.4-1.1,0.9-1.5,1.5c-0.4,0.6-0.8,1.2-1.2,1.9
			c-0.2,0.3-0.3,0.7-0.5,1c-0.1,0.3-0.3,0.7-0.4,1c-0.2,0.7-0.4,1.4-0.5,2.2C16,18.2,16,18.9,16,19.7c0.1,0.7,0.2,1.5,0.5,2.2
			c0.2,0.3,0.4,0.6,0.6,0.9c0.1,0.1,0.3,0.2,0.4,0.3c0.1,0.1,0.3,0.1,0.5,0.2c0.2,0,0.3,0.1,0.5,0.1c0.2,0,0.3,0,0.5-0.1
			c0.3-0.1,0.6-0.3,0.9-0.4c0.6-0.4,1.1-0.9,1.6-1.5C22.4,20.1,23.2,18.8,23.6,17.3z"/>
	</g>
	<path class="st1" d="M6.7,21.3c0-0.5-0.1-1-0.2-1.4C6.3,19.4,6.2,19,6,18.6c0-0.1-0.1-0.2-0.2-0.3l-0.1-0.2c0-0.1-0.1-0.1-0.1-0.1
		c-0.1-0.1-0.1-0.2-0.2-0.3c-0.1-0.1-0.1-0.2-0.2-0.3l-0.1-0.1c0,0-0.1-0.1-0.1-0.1l-0.2-0.3c-0.1-0.2-0.3-0.4-0.5-0.6
		c0.2,0.1,0.4,0.2,0.6,0.4l0.3,0.2c0,0,0.1,0.1,0.1,0.1l0.1,0.1c0.1,0.1,0.2,0.2,0.3,0.3c0.1,0.1,0.2,0.2,0.2,0.3
		c0,0.1,0.1,0.1,0.1,0.2L6.2,18c0.1,0.1,0.1,0.2,0.2,0.3c0.2,0.4,0.4,0.9,0.4,1.4C6.9,20.3,6.9,20.8,6.7,21.3z"/>
	<path class="st1" d="M6.7,23.6c0-0.5-0.1-1-0.2-1.4c-0.1-0.4-0.3-0.9-0.5-1.3c0-0.1-0.1-0.2-0.2-0.3l-0.1-0.2
		c0-0.1-0.1-0.1-0.1-0.1c-0.1-0.1-0.1-0.2-0.2-0.3c-0.1-0.1-0.1-0.2-0.2-0.3l-0.1-0.1c0,0-0.1-0.1-0.1-0.1l-0.2-0.3
		c-0.1-0.2-0.3-0.4-0.5-0.6C4.6,18.7,4.8,18.8,5,19l0.3,0.2c0,0,0.1,0.1,0.1,0.1l0.1,0.1c0.1,0.1,0.2,0.2,0.3,0.3
		C5.9,19.8,5.9,19.9,6,20c0,0.1,0.1,0.1,0.1,0.2l0.1,0.2c0.1,0.1,0.1,0.2,0.2,0.3c0.2,0.4,0.4,0.9,0.4,1.4
		C6.9,22.6,6.9,23.1,6.7,23.6z"/>
	<path class="st1" d="M34.8,26.8c0,0,1.1,2.7,3,2.9c0,0-2.2,0.4-2.7,1.9"/>
	<g>
		<ellipse class="st2" cx="18.5" cy="29.7" rx="16.8" ry="11.9"/>
		<path class="st1" d="M35.4,29.7c0,1.9-0.6,3.8-1.7,5.4c-1.1,1.6-2.5,2.9-4.1,4c-0.8,0.5-1.7,1-2.6,1.3l-0.3,0.1l-0.3,0.1L26,40.8
			c-0.1,0-0.2,0.1-0.3,0.1c-0.5,0.2-0.9,0.3-1.4,0.4c-0.2,0.1-0.5,0.1-0.7,0.2c-0.2,0-0.5,0.1-0.7,0.1l-0.7,0.1
			c-0.2,0-0.5,0.1-0.7,0.1c-1,0.1-1.9,0.2-2.9,0.1c-1.9,0-3.8-0.3-5.7-0.8c-0.9-0.3-1.8-0.6-2.7-1c-0.9-0.4-1.7-0.8-2.5-1.3
			c-1.6-1-3.1-2.3-4.2-3.8c-0.6-0.8-1-1.6-1.4-2.5c-0.3-0.9-0.5-1.9-0.5-2.9c0-2,0.6-3.9,1.7-5.5c1.1-1.6,2.6-2.9,4.3-3.9
			c1.7-1,3.5-1.7,5.3-2.2c0.2-0.1,0.5-0.1,0.7-0.2l0.7-0.1l0.7-0.1c0.2,0,0.5-0.1,0.7-0.1c1-0.1,1.9-0.2,2.9-0.2
			c1,0,1.9,0.1,2.9,0.2c0.2,0,0.5,0.1,0.7,0.1l0.7,0.1l0.7,0.2c0.2,0.1,0.5,0.1,0.7,0.2c0.5,0.1,0.9,0.3,1.4,0.4
			c0.1,0,0.2,0.1,0.3,0.1l0.3,0.1l0.3,0.1L27,19c0.9,0.4,1.7,0.8,2.6,1.4c0.8,0.5,1.6,1.1,2.3,1.8c0.7,0.7,1.3,1.4,1.9,2.2l0.1,0.1
			l0.1,0.2l0.2,0.3c0.1,0.2,0.2,0.4,0.3,0.6c0.1,0.2,0.2,0.4,0.3,0.7l0.1,0.3c0,0.1,0,0.1,0.1,0.2l0.1,0.2
			C35.2,27.8,35.4,28.8,35.4,29.7z M35.3,29.7c0-0.9-0.2-1.9-0.5-2.8c-0.3-0.9-0.8-1.7-1.3-2.5c-0.6-0.8-1.2-1.4-1.9-2
			c-0.7-0.6-1.5-1.1-2.3-1.6c-0.8-0.5-1.7-0.8-2.5-1.2l-0.3-0.1l-0.3-0.1l-0.3-0.1c-0.1,0-0.2-0.1-0.3-0.1c-0.4-0.1-0.9-0.3-1.3-0.4
			c-1.8-0.4-3.7-0.6-5.5-0.6c-1.9,0-3.7,0.2-5.5,0.7c-1.8,0.4-3.5,1.1-5.1,2c-1.6,0.9-3,2.1-4.1,3.6C2.7,26.1,2,27.9,2,29.7
			c0,0.9,0.1,1.8,0.4,2.7l0.1,0.2c0,0.1,0,0.1,0.1,0.2l0.1,0.3c0.1,0.2,0.2,0.4,0.3,0.6c0.1,0.2,0.2,0.4,0.3,0.6l0.2,0.3l0.1,0.1
			l0.1,0.1c1.1,1.5,2.5,2.8,4.1,3.7c0.8,0.5,1.7,0.9,2.5,1.2c0.9,0.3,1.8,0.6,2.7,0.8c0.9,0.2,1.8,0.4,2.8,0.4
			c0.9,0.1,1.9,0.1,2.8,0.1c1.9,0,3.7-0.3,5.5-0.7c0.5-0.1,0.9-0.2,1.3-0.4c0.1,0,0.2-0.1,0.3-0.1l0.3-0.1l0.3-0.1l0.3-0.1
			c0.9-0.3,1.7-0.7,2.5-1.2c0.8-0.5,1.6-1,2.3-1.6c0.7-0.6,1.4-1.3,1.9-2C34.6,33.5,35.3,31.6,35.3,29.7z"/>
	</g>
	<path class="st1" d="M18.5,17.8"/>
	<path class="st1" d="M19.9,18l-6.8,0.1c0,0-1.7,4.7-1,11.1c0.7,6.4,3.2,12.2,3.2,12.2h6.5c0,0-1.3-4.2-1.6-12.2
		c-0.2-8.6,1.4-10.9,1.4-10.9L19.9,18z"/>
	<g>
		<path class="st3" d="M29.5,28.8c-0.3-4.8,0.8-7.5,0.8-7.5l0.5,0.2c-3.1-2.4-7.5-3.8-12.3-3.8C9.3,17.6,1.7,23,1.7,29.5
			s7.5,11.9,16.8,11.9c5.1,0,9.7-1.6,12.7-4.1C30.7,36.8,29.9,33.1,29.5,28.8z"/>
		<path class="st1" d="M29.5,28.8c0.3,4.3,1.2,8,1.7,8.5c2.5-2.1,4.1-4.8,4.1-7.8c0-3.1-1.7-6-4.5-8.1l-0.5-0.2
			C30.4,21.3,29.2,24,29.5,28.8z"/>
	</g>
</g>
<path class="st4" d="M41.8,31.8c0,0,30.7,11.3,147.6,9.2c0,0,60.2-0.4,85.2-4.4s21.4-9.1,18.5-12.7c-2.9-3.5-27.6-8.2-29.1,5.9
	s45.5,13.1,64,11.5c18.5-1.6,54.9-23.8,93.4-17.4s54.2,17.3,78.4,18.3c24.2,1,28.1-4.8,28.1-4.8"/>
</svg>
