<?xml version="1.0" encoding="utf-8"?>
<!-- Generator: Adobe Illustrator 25.2.1, SVG Export Plug-In . SVG Version: 6.00 Build 0)  -->
<svg version="1.1" id="Warstwa_1" xmlns="http://www.w3.org/2000/svg" xmlns:xlink="http://www.w3.org/1999/xlink" x="0px" y="0px"
	 viewBox="0 0 737 368.5" style="enable-background:new 0 0 737 368.5;" xml:space="preserve">
<style type="text/css">
	.st0{fill:#FFFFFF;}
	.st1{fill:#FAB90F;}
	.st2{fill:none;}
	.st3{fill:none;stroke:#1D1D1B;stroke-width:2;stroke-miterlimit:10;}
	.st4{fill:none;stroke:#1D1D1B;stroke-width:2;stroke-miterlimit:10;stroke-dasharray:9.5064,9.5064;}
	.st5{fill:none;stroke:#1D1D1B;stroke-width:2;stroke-miterlimit:10;stroke-dasharray:9.9255,9.9255;}
	.st6{fill:none;stroke:#1D1D1B;stroke-width:2;stroke-miterlimit:10;stroke-dasharray:9.4711,9.4711;}
	.st7{fill:none;stroke:#1D1D1B;stroke-width:2;stroke-miterlimit:10;stroke-dasharray:9.6954,9.6954;}
	.st8{fill:#FFFFFF;stroke:#1D1D1B;stroke-width:2;stroke-miterlimit:10;stroke-dasharray:10;}
</style>
<g id="DEVELOPMENT">
	<path d="M406.8,114.3h-46.6c-5.1,0-9.2,4.1-9.2,9.2v29.1c0,5.1,4.1,9.2,9.2,9.2h46.6c5.1,0,9.2-4.1,9.2-9.2v-29.1
		C416,118.4,411.9,114.3,406.8,114.3L406.8,114.3z M374.6,128.9l-9.7,9.7l8.6,8.6c0.7,0.7,0.7,1.9,0,2.7c-0.7,0.7-1.9,0.7-2.7,0
		l-9.9-9.9c-0.7-0.7-0.7-1.9,0-2.7l11-11c0.7-0.7,1.9-0.7,2.7,0C375.4,127,375.4,128.2,374.6,128.9L374.6,128.9z M390.3,124.4
		l-10.1,28.5c-0.4,1-1.4,1.5-2.4,1.2c-1-0.4-1.5-1.4-1.2-2.4l10.1-28.5c0.4-1,1.4-1.5,2.4-1.2C390.2,122.4,390.7,123.5,390.3,124.4
		L390.3,124.4z M406.2,138.9l-11,11c-0.7,0.7-1.9,0.7-2.7,0c-0.7-0.7-0.7-1.9,0-2.7l9.7-9.7l-8.6-8.6c-0.7-0.7-0.7-1.9,0-2.7
		c0.7-0.7,1.9-0.7,2.7,0l9.9,9.9C406.9,136.9,406.9,138.1,406.2,138.9L406.2,138.9z"/>
</g>
<path id="JUPYTER" transform="translate(-1640 -2453)" d="M2221.6,2758.1v-7.1h1.6v7.7c0.1,0.6,0,1.3-0.2,1.9s-0.5,1.2-0.9,1.6
	c-0.7,0.6-1.7,1-2.7,1l-0.2-1.2c0.6,0,1.2-0.2,1.7-0.7C2221.4,2760.9,2221.6,2760.2,2221.6,2758.1L2221.6,2758.1z M2233.3,2757.2
	v-6.2h-1.6v5.2c0,0.3-0.1,0.6-0.2,0.8c-0.1,0.3-0.3,0.5-0.5,0.7c-0.2,0.2-0.4,0.4-0.7,0.5c-0.3,0.1-0.6,0.2-0.8,0.2
	c-1.4,0-1.9-1.1-1.9-2.7v-4.7h-1.6v5c0,3,1.6,3.7,3,3.7c0.6,0,1.1-0.1,1.6-0.4c0.5-0.3,0.9-0.7,1.2-1.2l0.1,1.4h1.4
	C2233.3,2758.9,2233.3,2758.1,2233.3,2757.2L2233.3,2757.2z M2236.2,2753.9v9.2h1.5v-4.7l0,0c0.3,0.4,0.7,0.8,1.1,1
	c0.5,0.2,1,0.3,1.5,0.3c2,0,3.9-1.5,3.9-4.6c0-2.6-1.6-4.3-3.6-4.3c-0.6,0-1.2,0.1-1.8,0.4c-0.5,0.3-1,0.7-1.3,1.3l-0.1-1.5h-1.4
	C2236.2,2751.9,2236.2,2752.7,2236.2,2753.9L2236.2,2753.9z M2237.8,2754.6c0-0.7,0.3-1.3,0.7-1.7c0.5-0.5,1.1-0.8,1.7-0.8
	c1.6,0,2.6,1.5,2.6,3.2c0,1.9-1,3.3-2.6,3.3c-0.5,0-1.1-0.2-1.5-0.5c-0.4-0.3-0.7-0.8-0.9-1.3c0-0.2-0.1-0.4-0.1-0.6V2754.6z
	 M2247.1,2751h-1.7l3.2,7.9c0.1,0.1,0.1,0.3,0.1,0.4c0,0.1-0.1,0.3-0.1,0.4c-0.3,0.7-0.7,1.3-1.3,1.7c-0.4,0.3-0.9,0.6-1.4,0.8
	l0.4,1.3c0.7-0.2,1.4-0.5,1.9-1c1.1-0.9,1.8-2.4,3-5.3l2.3-6.1h-1.6l-1.7,5c-0.2,0.6-0.4,1.3-0.5,1.8c-0.1-0.5-0.4-1.2-0.5-1.7
	L2247.1,2751L2247.1,2751z M2256.1,2749v2.1h-1.4v1.2h1.3v4.7c-0.1,0.8,0.1,1.6,0.6,2.2c0.2,0.2,0.5,0.4,0.8,0.5s0.6,0.2,0.9,0.1
	c0.5,0,0.9-0.1,1.4-0.2l-0.1-1.2c-0.3,0.1-0.6,0.1-0.9,0.1c-0.9,0-1.2-0.6-1.2-1.7v-4.6h2.2v-1.2h-2.2v-2.5L2256.1,2749z
	 M2262.7,2755.6h6c0-0.2,0-0.5,0-0.7c0-1.6-0.7-4-3.5-4c-2.5,0-4,2-4,4.6c0,0.6,0,1.1,0.2,1.7c0.2,0.5,0.5,1,0.9,1.4
	c0.4,0.4,0.9,0.7,1.4,0.9c0.5,0.2,1.1,0.3,1.7,0.2c1,0,2-0.2,2.9-0.5l-0.3-1.2c-0.7,0.3-1.5,0.5-2.3,0.4c-0.4,0-0.8,0-1.2-0.2
	s-0.7-0.4-1-0.6c-0.3-0.3-0.5-0.6-0.6-1S2262.7,2756,2262.7,2755.6L2262.7,2755.6z M2262.7,2754.4c0-0.6,0.3-1.3,0.7-1.7
	c0.4-0.5,1-0.8,1.7-0.8c0.3,0,0.6,0.1,0.9,0.2c0.3,0.1,0.5,0.3,0.7,0.6s0.4,0.5,0.4,0.8c0.1,0.3,0.1,0.6,0.1,0.9H2262.7z
	 M2271,2753.7v5.8h1.5v-4.5c0-0.2,0-0.5,0.1-0.7c0-0.5,0.3-1,0.7-1.4c0.4-0.4,0.9-0.6,1.4-0.6c0.2,0,0.4,0,0.5,0v-1.5
	c-0.1,0-0.3,0-0.4,0c-0.5,0-1,0.2-1.5,0.6s-0.7,0.8-0.9,1.3h-0.1v-1.7h-1.4C2271.1,2751.8,2271.1,2752.7,2271,2753.7L2271,2753.7z
	 M2270.4,2727.6c0-0.5-0.2-1-0.4-1.5c-0.2-0.5-0.5-0.9-0.9-1.2c-0.4-0.3-0.8-0.6-1.3-0.8c-0.5-0.2-1-0.2-1.5-0.2
	c-0.8,0-1.5,0.3-2.2,0.8c-0.6,0.5-1.1,1.1-1.4,1.8c-0.3,0.7-0.3,1.5-0.1,2.3c0.2,0.8,0.6,1.5,1.2,2c0.6,0.5,1.3,0.9,2.1,1
	c0.8,0.1,1.6,0,2.3-0.4c0.7-0.3,1.3-0.9,1.7-1.6S2270.5,2728.4,2270.4,2727.6L2270.4,2727.6z M2232.9,2784.2c0-0.6-0.2-1.3-0.5-1.9
	s-0.7-1.1-1.2-1.5c-0.5-0.4-1-0.8-1.7-1c-0.6-0.2-1.3-0.3-1.9-0.3c-1,0-1.9,0.4-2.7,1c-0.8,0.6-1.4,1.4-1.7,2.3
	c-0.3,0.9-0.4,1.9-0.1,2.9c0.2,1,0.8,1.8,1.5,2.5c0.7,0.7,1.7,1.1,2.6,1.2c1,0.1,2,0,2.9-0.4c0.9-0.4,1.6-1.1,2.1-2
	C2232.7,2786.1,2232.9,2785.1,2232.9,2784.2L2232.9,2784.2z M2226,2734.9c0.5-0.6,0.8-1.3,0.8-2.1c0-0.6-0.2-1.1-0.5-1.6
	s-0.8-0.8-1.3-1c-0.5-0.2-1.1-0.2-1.7-0.1s-1.1,0.4-1.4,0.8c-0.4,0.4-0.6,0.9-0.7,1.5c-0.1,0.6,0,1.1,0.2,1.6c0.2,0.5,0.6,1,1.1,1.3
	s1,0.5,1.6,0.4C2224.8,2735.8,2225.5,2735.5,2226,2734.9z M2247.3,2773.3c-10.5,0-19.7-3.8-24.5-9.3c1.9,5,5.2,9.3,9.6,12.4
	s9.6,4.7,14.9,4.7c5.3,0,10.6-1.6,14.9-4.7s7.7-7.4,9.6-12.4C2267.1,2769.5,2257.9,2773.3,2247.3,2773.3z M2247.3,2737.1
	c10.5,0,19.7,3.8,24.5,9.3c-1.9-5-5.2-9.3-9.6-12.4c-4.4-3.1-9.6-4.7-14.9-4.7c-5.3,0-10.6,1.6-14.9,4.7c-4.4,3.1-7.7,7.4-9.6,12.4
	C2227.6,2740.9,2236.8,2737.1,2247.3,2737.1z"/>
<g id="DATABASE">
	<g>
		<path d="M293.8,300.7c-4.5-2-10.5-3.1-16.7-3.1c-6.3,0-12.2,1.1-16.7,3.1c-5,2.2-7.8,5.4-7.8,8.8c0,0,0,0.1,0,0.1c0,0,0,0,0,0
			l0,34.4c0,3.3,2.8,6.3,7.8,8.4c4.5,1.9,10.4,2.9,16.7,2.9c6.3,0,12.2-1,16.7-2.9c5-2.1,7.8-5.1,7.8-8.4v-34.5c0,0,0,0,0,0
			C301.6,306,298.9,302.9,293.8,300.7z M262,304.1c4.1-1.8,9.4-2.8,15.2-2.8c5.7,0,11.1,1,15.2,2.8c3.5,1.5,5.6,3.6,5.6,5.4
			s-2.1,3.8-5.6,5.4c-4.1,1.8-9.4,2.8-15.2,2.8c-11.9,0-20.7-4.3-20.7-8.2C256.4,307.7,258.5,305.7,262,304.1z M297.9,344.1
			c0,1.7-2,3.5-5.5,4.9c-4,1.7-9.5,2.6-15.3,2.6c-5.8,0-11.2-0.9-15.3-2.6c-3.4-1.4-5.5-3.3-5.5-4.9V339c1.1,0.8,2.5,1.5,4,2.2
			c4.5,1.9,10.4,2.9,16.7,2.9c6.3,0,12.2-1,16.7-2.9c1.6-0.7,2.9-1.4,4-2.2L297.9,344.1L297.9,344.1z M292.4,337.7
			c-4,1.7-9.5,2.6-15.3,2.6c-5.8,0-11.2-0.9-15.3-2.6c-3.4-1.4-5.5-3.3-5.5-4.9c0,0,0,0,0,0l0-5.1c1.1,0.8,2.5,1.5,4,2.2
			c4.5,1.9,10.4,2.9,16.7,2.9c6.3,0,12.2-1,16.7-2.9c1.6-0.7,2.9-1.4,4-2.2v5.1l0,0C297.9,334.4,295.8,336.3,292.4,337.7z
			 M292.4,326.4c-4,1.7-9.5,2.6-15.3,2.6c-5.8,0-11.2-0.9-15.3-2.6c-3.4-1.4-5.5-3.3-5.5-4.9c0,0,0,0,0,0l0-5.4
			c1.1,0.9,2.5,1.6,4,2.3c4.5,2,10.5,3.1,16.7,3.1c6.2,0,12.2-1.1,16.7-3.1c1.6-0.7,2.9-1.5,4-2.3v5.4l0,0
			C297.9,323.1,295.8,324.9,292.4,326.4z"/>
	</g>
</g>
<g id="PROCESS">
	<path d="M612.5,136.5c2.7,0,4.9-1.9,5.3-4.5h10.5l-1.2,1.2l1.3,1.3l3.3-3.3l-3.3-3.3l-1.3,1.3l1.2,1.2h-10.5
		c-0.4-2.6-2.6-4.5-5.3-4.5c-3,0-5.4,2.4-5.4,5.4S609.5,136.5,612.5,136.5z"/>
	<path d="M648.9,130.1H643c-0.4-2.6-2.6-4.5-5.3-4.5c-3,0-5.4,2.4-5.4,5.4c0,3,2.4,5.4,5.4,5.4c2.7,0,4.9-1.9,5.3-4.5h5.9
		c5.2,0,9.5,4.2,9.5,9.5s-4.2,9.5-9.5,9.5h-14.5l1.2-1.2l-1.3-1.3l-3.3,3.3l3.3,3.3l1.3-1.3l-1.2-1.2h14.5c6.2,0,11.3-5,11.3-11.3
		S655.1,130.1,648.9,130.1z"/>
	<circle cx="653.9" cy="172.5" r="5.4"/>
	<path d="M628.7,167.1c-3,0-5.4,2.4-5.4,5.4c0,3,2.4,5.4,5.4,5.4c2.7,0,4.9-1.9,5.3-4.5h10.5l-1.2,1.2l1.3,1.3l3.3-3.3l-3.3-3.3
		l-1.3,1.3l1.2,1.2H634C633.6,169,631.3,167.1,628.7,167.1L628.7,167.1z"/>
	<path d="M617.4,173.4h1.9l-1.2,1.2l1.3,1.3l3.3-3.3l-3.3-3.3l-1.3,1.3l1.2,1.2h-1.9c-5.2,0-9.5-4.2-9.5-9.5s4.2-9.5,9.5-9.5h2.3
		c0.4,2.6,2.6,4.5,5.3,4.5c3,0,5.4-2.4,5.4-5.4c0-3-2.4-5.4-5.4-5.4c-2.7,0-4.9,1.9-5.3,4.5h-2.3c-6.2,0-11.3,5-11.3,11.3
		C606.1,168.3,611.2,173.4,617.4,173.4L617.4,173.4z"/>
</g>
<g id="BEE">
	<g>
		<ellipse transform="matrix(0.2835 -0.959 0.959 0.2835 22.5475 124.05)" class="st0" cx="94.3" cy="46.9" rx="33.3" ry="16.4"/>
		<path d="M110.2,51.6c-1,3.2-2.1,6.4-3.4,9.5c-1.3,3.1-2.8,6.2-4.7,9c-1,1.4-2,2.8-3.2,4.1c-1.2,1.3-2.5,2.5-3.9,3.5
			c-1.5,1-3.1,1.9-4.9,2.3c-0.9,0.2-1.8,0.4-2.8,0.4c-1,0-1.9-0.2-2.8-0.4c-0.9-0.3-1.8-0.7-2.5-1.3c-0.8-0.6-1.4-1.2-2-1.9
			c-1.2-1.4-2-3-2.6-4.6c-0.6-1.6-1-3.3-1.3-5c-0.3-1.7-0.4-3.4-0.5-5.1c-0.2-3.4,0-6.8,0.4-10.1c0.2-1.7,0.5-3.3,0.7-5
			c0.3-1.7,0.7-3.3,1.1-5c1.7-6.6,4.3-13,8.3-18.6c2-2.8,4.4-5.4,7.3-7.5c1.5-1,3.1-1.9,5-2.4c0.9-0.3,1.9-0.4,2.9-0.4
			c1,0,2,0.1,2.9,0.4c0.9,0.3,1.8,0.7,2.7,1.3c0.8,0.6,1.5,1.2,2.1,1.9c1.3,1.4,2.1,3,2.8,4.7c0.7,1.7,1.1,3.4,1.3,5.1
			c0.3,1.7,0.4,3.4,0.4,5.2c0,3.4-0.4,6.8-1,10.1C111.9,45.1,111.1,48.4,110.2,51.6z M109.9,51.5c1.9-6.4,2.5-13.2,1.7-19.7
			c-0.4-3.2-1.1-6.4-2.4-9.3c-0.7-1.4-1.4-2.7-2.4-3.8c-0.5-0.5-1-1-1.6-1.4c-0.6-0.4-1.2-0.6-1.9-0.8c-0.7-0.2-1.3-0.3-2-0.3
			c-0.7,0-1.4,0.1-2.1,0.3c-1.4,0.4-2.8,1.1-4.1,1.9c-2.6,1.7-4.8,4.1-6.8,6.7c-2,2.6-3.6,5.4-5.1,8.3c-0.7,1.5-1.4,3-2.1,4.5
			c-0.6,1.5-1.2,3.1-1.8,4.6c-1,3.1-1.9,6.4-2.4,9.7c-0.5,3.3-0.7,6.6-0.4,9.9c0.3,3.3,0.9,6.6,2.3,9.5c0.7,1.4,1.6,2.8,2.6,3.9
			c0.5,0.5,1.1,1,1.7,1.4c0.6,0.4,1.3,0.6,2,0.8c0.7,0.2,1.4,0.3,2.1,0.2c0.7-0.1,1.4-0.1,2.2-0.3c1.4-0.4,2.8-1.1,4.1-2
			c2.6-1.7,4.9-4.1,7-6.6C104.8,64,108,58,109.9,51.5z"/>
	</g>
	<g>
		<ellipse transform="matrix(0.2835 -0.959 0.959 0.2835 21.1219 145.308)" class="st0" cx="107.8" cy="58.5" rx="33.3" ry="16.4"/>
		<path d="M123.7,63.2c-1,3.2-2.1,6.4-3.4,9.5c-1.3,3.1-2.8,6.2-4.7,9c-1,1.4-2,2.8-3.2,4.1c-1.2,1.3-2.5,2.5-3.9,3.5
			c-1.5,1-3.1,1.9-4.9,2.3c-0.9,0.2-1.8,0.4-2.8,0.4c-1,0-1.9-0.2-2.8-0.4c-0.9-0.3-1.8-0.7-2.5-1.3c-0.8-0.6-1.4-1.2-2-1.9
			c-1.2-1.4-2-3-2.6-4.6c-0.6-1.6-1-3.3-1.3-5c-0.3-1.7-0.4-3.4-0.5-5.1c-0.2-3.4,0-6.8,0.4-10.1c0.2-1.7,0.5-3.3,0.7-5
			c0.3-1.7,0.7-3.3,1.1-5c1.7-6.6,4.3-13,8.3-18.6c2-2.8,4.4-5.4,7.3-7.5c1.5-1,3.1-1.9,5-2.4c0.9-0.3,1.9-0.4,2.9-0.4
			c1,0,2,0.1,2.9,0.4c0.9,0.3,1.8,0.7,2.7,1.3c0.8,0.6,1.5,1.2,2.1,1.9c1.3,1.4,2.1,3,2.8,4.7c0.7,1.7,1.1,3.4,1.3,5.1
			c0.3,1.7,0.4,3.4,0.4,5.2c0,3.4-0.4,6.8-1,10.1C125.4,56.7,124.6,60,123.7,63.2z M123.4,63.1c1.9-6.4,2.5-13.2,1.7-19.7
			c-0.4-3.2-1.1-6.4-2.4-9.3c-0.7-1.4-1.4-2.7-2.4-3.8c-0.5-0.5-1-1-1.6-1.4c-0.6-0.4-1.2-0.6-1.9-0.8c-0.7-0.2-1.3-0.3-2-0.3
			c-0.7,0-1.4,0.1-2.1,0.3c-1.4,0.4-2.8,1.1-4.1,1.9c-2.6,1.7-4.8,4.1-6.8,6.7c-2,2.6-3.6,5.4-5.1,8.3c-0.7,1.5-1.4,3-2.1,4.5
			c-0.6,1.5-1.2,3.1-1.8,4.6c-1,3.1-1.9,6.4-2.4,9.7c-0.5,3.3-0.7,6.6-0.4,9.9c0.3,3.3,0.9,6.6,2.3,9.5c0.7,1.4,1.6,2.8,2.6,3.9
			c0.5,0.5,1.1,1,1.7,1.4c0.6,0.4,1.3,0.6,2,0.8c0.7,0.2,1.4,0.3,2.1,0.2c0.7-0.1,1.4-0.1,2.2-0.3c1.4-0.4,2.8-1.1,4.1-2
			c2.6-1.7,4.9-4.1,7-6.6C118.3,75.6,121.5,69.5,123.4,63.1z"/>
	</g>
	<path d="M48.7,80.6c-0.2-2.2-0.6-4.2-1.1-6.2c-0.6-2-1.2-3.9-2.2-5.7c-0.2-0.5-0.5-0.9-0.7-1.3l-0.4-0.7c-0.1-0.2-0.3-0.4-0.4-0.6
		c-0.3-0.4-0.5-0.9-0.8-1.3c-0.3-0.4-0.6-0.8-0.9-1.3l-0.4-0.6c-0.2-0.2-0.3-0.4-0.5-0.6l-1-1.2c-0.7-0.8-1.4-1.6-2.1-2.5
		c1,0.5,1.9,1.1,2.8,1.7l1.3,1c0.2,0.2,0.4,0.3,0.6,0.5l0.6,0.6c0.4,0.4,0.8,0.8,1.1,1.2c0.3,0.4,0.7,0.9,1,1.3
		c0.2,0.2,0.3,0.4,0.5,0.7l0.4,0.7c0.3,0.5,0.6,0.9,0.8,1.5c1,2,1.6,4.2,1.9,6.3C49.5,76.3,49.4,78.5,48.7,80.6z"/>
	<path d="M48.7,90.8c-0.2-2.2-0.6-4.2-1.1-6.2c-0.6-2-1.2-3.9-2.2-5.7c-0.2-0.5-0.5-0.9-0.7-1.3l-0.4-0.7c-0.1-0.2-0.3-0.4-0.4-0.6
		c-0.3-0.4-0.5-0.9-0.8-1.3c-0.3-0.4-0.6-0.8-0.9-1.3L41.8,73c-0.2-0.2-0.3-0.4-0.5-0.6l-1-1.2c-0.7-0.8-1.4-1.6-2.1-2.5
		c1,0.5,1.9,1.1,2.8,1.7l1.3,1c0.2,0.2,0.4,0.3,0.6,0.5l0.6,0.6c0.4,0.4,0.8,0.8,1.1,1.2c0.3,0.4,0.7,0.9,1,1.3
		c0.2,0.2,0.3,0.4,0.5,0.7l0.4,0.7c0.3,0.5,0.6,0.9,0.8,1.5c1,2,1.6,4.2,1.9,6.3C49.5,86.5,49.4,88.7,48.7,90.8z"/>
	<path d="M173.1,104.9c0,0,4.8,11.8,13.5,12.9c0,0-9.9,1.7-12.1,8.6"/>
	<g>
		<ellipse class="st1" cx="101" cy="117.9" rx="74.3" ry="52.6"/>
		<path d="M175.6,117.9c0,8.4-2.8,16.8-7.6,23.8c-4.7,7-11.1,12.9-18.3,17.5c-3.6,2.3-7.4,4.3-11.3,6l-1.5,0.6l-1.5,0.6L134,167
			c-0.5,0.2-1,0.3-1.5,0.5c-2,0.7-4.1,1.3-6.1,1.8c-1,0.3-2.1,0.5-3.1,0.8c-1,0.2-2.1,0.4-3.1,0.6l-3.2,0.5
			c-1.1,0.2-2.1,0.3-3.2,0.4c-4.2,0.5-8.5,0.7-12.7,0.6c-8.5-0.2-17-1.4-25.1-3.6c-4.1-1.1-8.1-2.5-12-4.2
			c-3.9-1.7-7.7-3.6-11.3-5.8c-7.2-4.4-13.8-10-18.7-16.9c-2.5-3.4-4.5-7.2-6-11.2c-1.4-4-2.3-8.3-2.4-12.6
			c-0.2-8.6,2.6-17.3,7.6-24.4C38,86.4,44.7,80.6,52,76.1c7.3-4.5,15.4-7.7,23.6-9.9c1-0.3,2.1-0.5,3.1-0.8l3.1-0.6l3.2-0.5
			c1.1-0.2,2.1-0.3,3.2-0.4c4.2-0.5,8.5-0.8,12.8-0.8c4.3,0,8.5,0.3,12.8,0.9c1.1,0.2,2.1,0.3,3.2,0.4l3.2,0.5l3.1,0.7
			c1,0.2,2.1,0.5,3.1,0.8c2.1,0.6,4.1,1.2,6.1,1.9c0.5,0.2,1,0.3,1.5,0.5l1.5,0.6L137,70l1.5,0.6c3.9,1.7,7.7,3.7,11.3,6
			c3.6,2.3,7,4.9,10.1,7.9c3.1,2.9,5.9,6.2,8.2,9.7l0.4,0.7l0.4,0.7l0.8,1.4c0.5,0.9,1,1.9,1.5,2.8c0.4,1,0.9,1.9,1.3,2.9l0.6,1.5
			c0.1,0.2,0.2,0.5,0.3,0.7l0.2,0.8C174.9,109.5,175.6,113.7,175.6,117.9z M175.2,117.9c-0.1-4.2-0.8-8.3-2.2-12.2
			c-1.4-3.9-3.4-7.6-5.9-10.9c-2.5-3.3-5.4-6.3-8.6-8.9c-3.2-2.6-6.6-4.9-10.2-6.9c-3.6-2-7.4-3.7-11.2-5.1l-1.4-0.5l-1.5-0.5
			l-1.5-0.5c-0.5-0.2-1-0.3-1.5-0.4c-2-0.6-3.9-1.1-5.9-1.6c-8-1.9-16.2-2.8-24.4-2.7c-8.2,0-16.4,1-24.3,2.9
			c-7.9,1.9-15.7,4.9-22.7,9c-7,4.1-13.4,9.4-18.1,16c-4.8,6.5-7.8,14.3-8,22.5c-0.1,4.1,0.5,8.1,1.8,12l0.2,0.7
			c0.1,0.2,0.2,0.5,0.3,0.7l0.5,1.4c0.4,1,0.8,1.9,1.3,2.8c0.5,0.9,1,1.8,1.5,2.7l0.8,1.3l0.4,0.7l0.4,0.6
			c4.7,6.8,11.1,12.3,18.3,16.5c3.6,2.1,7.3,3.9,11.2,5.4c3.9,1.5,7.9,2.6,11.9,3.5c4,0.9,8.1,1.5,12.2,1.9
			c4.1,0.4,8.2,0.5,12.3,0.5c8.2-0.2,16.4-1.1,24.4-3.1c2-0.5,4-1,5.9-1.6c0.5-0.2,1-0.3,1.5-0.4l1.5-0.5l1.5-0.5l1.4-0.5
			c3.8-1.5,7.6-3.2,11.2-5.2c3.6-2,7-4.3,10.2-6.9c3.2-2.6,6.1-5.6,8.6-8.9C172.1,134.5,175.2,126.3,175.2,117.9z"/>
	</g>
	<path d="M29.9,134.9c2.5,1.7,5.2,3.1,7.9,4.2c2.8,1.1,5.6,1.9,8.6,2c1.5,0.1,2.9,0,4.4-0.2c1.4-0.2,2.9-0.6,4.2-1.2
		c2.7-1.1,5.2-2.8,7.5-4.9c-1.8,2.4-4.2,4.5-7,5.9l-1.1,0.5c-0.4,0.1-0.7,0.3-1.1,0.4c-0.4,0.1-0.7,0.2-1.1,0.3
		c-0.4,0.1-0.8,0.2-1.1,0.3c-1.5,0.3-3.1,0.4-4.7,0.3c-1.6-0.1-3.1-0.4-4.6-0.8c-1.5-0.4-2.9-1-4.3-1.7
		C34.6,138.8,32.1,137,29.9,134.9z"/>
	<g>
		<g>
			<ellipse class="st0" cx="43" cy="112.8" rx="5.1" ry="8"/>
			<path d="M43,121.5c-3.2,0-5.8-3.8-5.8-8.7c0-4.9,2.5-8.7,5.8-8.7c3.2,0,5.8,3.8,5.8,8.7C48.8,117.7,46.2,121.5,43,121.5z
				 M43,105.6c-2.4,0-4.4,3.3-4.4,7.2c0,3.9,2,7.2,4.4,7.2c2.4,0,4.4-3.3,4.4-7.2C47.3,108.9,45.4,105.6,43,105.6z"/>
		</g>
		<circle cx="41.9" cy="114" r="3.8"/>
	</g>
	<path d="M101,65.3"/>
	<path d="M107.1,66l-30.1,0.4c0,0-7.6,20.7-4.5,48.9c3.1,28.2,14.3,54.1,14.3,54.1h28.7c0,0-5.9-18.8-6.9-54.1
		c-1.1-38,6-48.1,6-48.1L107.1,66z"/>
	<g>
		<path class="st2" d="M149.7,114c-1.5-21.2,3.7-33.4,3.7-33.4l2.3,0.9c-13.6-10.4-33-16.9-54.6-16.9c-41,0-74.3,23.6-74.3,52.6
			S60,169.8,101,169.8c22.5,0,42.7-7.1,56.3-18.3C154.9,149.4,151.1,132.8,149.7,114z"/>
		<path d="M149.7,114c1.4,18.8,5.2,35.4,7.7,37.5c11.2-9.2,18-21.2,18-34.3c0-13.8-7.5-26.3-19.7-35.7l-2.3-0.9
			C153.4,80.6,148.2,92.7,149.7,114z"/>
	</g>
</g>
<g id="LINES">
	<g>
		<g>
			<path class="st3" d="M192.9,118.4c0,0,1.8-0.2,5-0.4"/>
			<path class="st4" d="M207.3,117.4c25.1-1.4,78.7-2.6,127.8,7.1"/>
			<path class="st3" d="M339.8,125.5c1.6,0.4,3.3,0.7,4.9,1.1"/>
		</g>
	</g>
	<g>
		<g>
			<path class="st3" d="M423,156.3c0,0,1.5,0.9,4.4,2.3"/>
			<path class="st5" d="M436.5,162.5c13.6,5.1,37,11.4,67.7,9.8c36.2-1.9,68.4-9.2,83.8-13.3"/>
			<path class="st3" d="M592.8,157.7c3.1-0.9,4.8-1.4,4.8-1.4"/>
		</g>
	</g>
	<g>
		<g>
			<path class="st3" d="M666.1,151.5c0,0,1.5,1,4.1,2.9"/>
			<path class="st6" d="M677.5,160.3c15.7,13.3,41.1,39.9,32,67.1c-9.7,29-41,54.2-55.9,65"/>
			<path class="st3" d="M649.7,295.1c-2.6,1.8-4.2,2.8-4.2,2.8"/>
		</g>
	</g>
	<g>
		<g>
			<path class="st3" d="M573.1,328c0,0-1.5,1-4.3,2.5"/>
			<path class="st7" d="M560,334.7c-17.8,7.8-53.2,19.2-102.8,15.9c-57.8-3.9-117.7-16.6-140.5-21.8"/>
			<path class="st3" d="M312,327.6c-3.1-0.7-4.9-1.2-4.9-1.2"/>
		</g>
	</g>
	<path class="st8" d="M245.9,311c0,0-76-26.9-203.9,20.3"/>
</g>
</svg>
