<?xml version="1.0" encoding="utf-8"?>
<!-- Generator: Adobe Illustrator 27.9.0, SVG Export Plug-In . SVG Version: 6.00 Build 0)  -->
<svg version="1.1" id="Warstwa_1" xmlns="http://www.w3.org/2000/svg" xmlns:xlink="http://www.w3.org/1999/xlink" x="0px" y="0px"
	 viewBox="0 0 480 332" style="enable-background:new 0 0 480 332;" xml:space="preserve">
<style type="text/css">
	.st0{fill:#FAB90F;}
</style>
<g>
	<path class="st0" d="M286,157h-90.6L150,78.5L195.3,0H286l45.3,78.5L286,157z M203.7,142.5h73.9l36.9-64l-36.9-64h-73.9l-36.9,64
		L203.7,142.5z"/>
	<path class="st0" d="M286,332h-90.6L150,253.5l45.3-78.5H286l45.3,78.5L286,332z M203.7,317.5h73.9l36.9-64l-36.9-64h-73.9
		l-36.9,64L203.7,317.5z"/>
	<polygon class="st0" points="434.7,87.6 344.1,87.6 298.8,166 344.1,244.5 434.7,244.5 480,166 	"/>
	<polygon class="st0" points="135.9,87.6 45.3,87.6 0,166 45.3,244.5 135.9,244.5 181.2,166 	"/>
</g>
</svg>
