<?xml version="1.0" encoding="utf-8"?>
<!-- Generator: Adobe Illustrator 25.2.3, SVG Export Plug-In . SVG Version: 6.00 Build 0)  -->
<svg version="1.1" id="Warstwa_1" xmlns="http://www.w3.org/2000/svg" xmlns:xlink="http://www.w3.org/1999/xlink" x="0px" y="0px"
	 viewBox="0 0 600 600" style="enable-background:new 0 0 600 600;" xml:space="preserve">
<style type="text/css">
	.st0{fill:#E30303;}
	.st1{fill:#FF8B00;}
	.st2{fill:#FEED00;}
	.st3{fill:#008026;}
	.st4{fill:#004DFF;}
	.st5{fill:#750686;}
	.st6{fill:#FFFFFF;}
</style>
<g>
	<rect class="st0" width="600" height="100"/>
	<rect y="100" class="st1" width="600" height="100"/>
	<rect y="200" class="st2" width="600" height="100"/>
	<rect y="300" class="st3" width="600" height="100"/>
	<rect y="400" class="st4" width="600" height="100"/>
	<rect y="500" class="st5" width="600" height="100"/>
</g>
<g>
	<path class="st6" d="M341.6,291.8h-82L218.9,221l40.7-71h81.7l41,70.7L341.6,291.8z M267.1,278.8h66.7l33.5-57.7l-33.5-57.7h-66.7
		L233.9,221L267.1,278.8z"/>
	<path class="st6" d="M341.6,450h-82l-40.7-71l41-70.7h81.7l41,70.7L341.6,450z M267.1,436.7h66.7l33.5-57.7l-33.5-57.7h-66.7
		L233.9,379L267.1,436.7z"/>
	<polygon class="st6" points="475.8,229.1 394.1,229.1 353.1,300.1 394.1,370.9 475.8,370.9 516.8,300.1 	"/>
	<polygon class="st6" points="205.9,229.1 124.2,229.1 83.2,300.1 124.2,370.9 205.9,370.9 246.9,300.1 	"/>
</g>
</svg>
