<?xml version="1.0" encoding="utf-8"?>
<!-- Generator: Adobe Illustrator 28.3.0, SVG Export Plug-In . SVG Version: 6.00 Build 0)  -->
<svg version="1.1" id="Warstwa_1" xmlns="http://www.w3.org/2000/svg" xmlns:xlink="http://www.w3.org/1999/xlink" x="0px" y="0px"
	 viewBox="0 0 841.9 595.3" style="enable-background:new 0 0 841.9 595.3;" xml:space="preserve">
<style type="text/css">
	.st0{fill:#FFFFFF;}
	.st1{fill:#FAB90F;}
	.st2{fill:none;}
	.st3{fill-rule:evenodd;clip-rule:evenodd;fill:#EE90A2;}
	.st4{fill-rule:evenodd;clip-rule:evenodd;fill:#D3566D;}
	.st5{fill:#AA4155;}
</style>
<g>
	<g>
		<ellipse transform="matrix(0.2835 -0.959 0.959 0.2835 76.3478 540.2221)" class="st0" cx="399.7" cy="219" rx="57.3" ry="28.2"/>
		<path d="M427,227.1c-1.7,5.5-3.5,11-5.8,16.4c-2.3,5.3-4.8,10.6-8.1,15.5c-1.6,2.4-3.4,4.8-5.4,7c-2,2.2-4.2,4.3-6.7,6
			c-2.5,1.7-5.3,3.2-8.4,4c-1.5,0.4-3.2,0.6-4.8,0.6c-1.6,0-3.3-0.3-4.9-0.8c-1.6-0.5-3-1.3-4.4-2.2c-1.3-1-2.5-2-3.5-3.3
			c-2-2.4-3.4-5.2-4.5-8c-1-2.8-1.7-5.7-2.2-8.6c-0.5-2.9-0.8-5.8-0.9-8.7c-0.3-5.8,0-11.6,0.7-17.4c0.4-2.9,0.8-5.8,1.3-8.6
			c0.5-2.9,1.2-5.7,1.9-8.5c2.9-11.3,7.4-22.3,14.3-32c3.5-4.8,7.5-9.4,12.6-12.9c2.5-1.8,5.4-3.3,8.5-4.1c1.6-0.4,3.2-0.7,4.9-0.7
			c1.7,0,3.4,0.2,5,0.7c1.6,0.5,3.2,1.3,4.6,2.2c1.4,1,2.6,2.1,3.7,3.3c2.2,2.4,3.7,5.2,4.8,8.1c1.1,2.9,1.9,5.8,2.3,8.8
			c0.5,3,0.6,5.9,0.7,8.9c0.1,5.9-0.7,11.7-1.7,17.4C430,215.9,428.7,221.6,427,227.1z M426.6,227c3.3-11,4.3-22.7,3-34
			c-0.7-5.6-2-11.1-4.1-16c-1.1-2.4-2.5-4.7-4.2-6.6c-0.8-0.9-1.8-1.7-2.8-2.4c-1-0.6-2.1-1.1-3.2-1.5c-1.1-0.3-2.3-0.5-3.5-0.5
			c-1.2,0-2.4,0.2-3.6,0.5c-2.4,0.6-4.8,1.9-7,3.3c-4.5,3-8.3,7-11.7,11.5c-3.4,4.4-6.3,9.3-8.8,14.3c-1.3,2.5-2.5,5.1-3.6,7.7
			c-1.1,2.6-2.1,5.3-3,8c-1.8,5.4-3.3,11-4.1,16.6c-0.8,5.7-1.2,11.4-0.8,17.1c0.5,5.7,1.6,11.3,4,16.4c1.2,2.5,2.7,4.8,4.5,6.7
			c0.9,0.9,1.9,1.7,3,2.4c1.1,0.6,2.2,1.1,3.4,1.5c1.2,0.3,2.4,0.4,3.7,0.4c1.2-0.1,2.5-0.2,3.7-0.6c2.5-0.7,4.8-1.9,7.1-3.4
			c4.5-3,8.5-7,12.1-11.3C417.8,248.4,423.3,238,426.6,227z"/>
	</g>
	<g>
		<ellipse transform="matrix(0.2835 -0.959 0.959 0.2835 73.8938 576.8178)" class="st0" cx="423" cy="239" rx="57.3" ry="28.2"/>
		<path d="M450.3,247c-1.7,5.5-3.5,11-5.8,16.4c-2.3,5.3-4.8,10.6-8.1,15.5c-1.6,2.4-3.4,4.8-5.4,7c-2,2.2-4.2,4.3-6.7,6
			c-2.5,1.7-5.3,3.2-8.4,4c-1.5,0.4-3.2,0.6-4.8,0.6c-1.6,0-3.3-0.3-4.9-0.8c-1.6-0.5-3-1.3-4.4-2.2c-1.3-1-2.5-2-3.5-3.3
			c-2-2.4-3.4-5.2-4.5-8c-1-2.8-1.7-5.7-2.2-8.6c-0.5-2.9-0.8-5.8-0.9-8.7c-0.3-5.8,0-11.6,0.7-17.4c0.4-2.9,0.8-5.8,1.3-8.6
			c0.5-2.9,1.2-5.7,1.9-8.5c2.9-11.3,7.4-22.3,14.3-32c3.5-4.8,7.5-9.4,12.6-12.9c2.5-1.8,5.4-3.3,8.5-4.1c1.6-0.4,3.2-0.7,4.9-0.7
			c1.7,0,3.4,0.2,5,0.7c1.6,0.5,3.2,1.3,4.6,2.2c1.4,1,2.6,2.1,3.7,3.3c2.2,2.4,3.7,5.2,4.8,8.1c1.1,2.9,1.9,5.8,2.3,8.8
			c0.5,3,0.6,5.9,0.7,8.9c0.1,5.9-0.7,11.7-1.7,17.4C453.3,235.9,452,241.5,450.3,247z M449.8,246.9c3.3-11,4.3-22.7,3-34
			c-0.7-5.6-2-11.1-4.1-16c-1.1-2.4-2.5-4.7-4.2-6.6c-0.8-0.9-1.8-1.7-2.8-2.4c-1-0.6-2.1-1.1-3.2-1.5c-1.1-0.3-2.3-0.5-3.5-0.5
			c-1.2,0-2.4,0.2-3.6,0.5c-2.4,0.6-4.8,1.9-7,3.3c-4.5,3-8.3,7-11.7,11.5c-3.4,4.4-6.3,9.3-8.8,14.3c-1.3,2.5-2.5,5.1-3.6,7.7
			c-1.1,2.6-2.1,5.3-3,8c-1.8,5.4-3.3,11-4.1,16.6c-0.8,5.7-1.2,11.4-0.8,17.1c0.5,5.7,1.6,11.3,4,16.4c1.2,2.5,2.7,4.8,4.5,6.7
			c0.9,0.9,1.9,1.7,3,2.4c1.1,0.6,2.2,1.1,3.4,1.5c1.2,0.3,2.4,0.4,3.7,0.4c1.2-0.1,2.5-0.2,3.7-0.6c2.5-0.7,4.8-1.9,7.1-3.4
			c4.5-3,8.5-7,12.1-11.3C441.1,268.3,446.6,257.9,449.8,246.9z"/>
	</g>
	<path d="M321.3,277c-0.3-3.7-1-7.2-1.9-10.7c-1-3.4-2.1-6.7-3.7-9.8c-0.3-0.8-0.8-1.5-1.2-2.3l-0.6-1.2c-0.2-0.4-0.5-0.7-0.7-1.1
		c-0.5-0.7-0.9-1.5-1.4-2.2c-0.5-0.7-1-1.4-1.6-2.2l-0.8-1.1c-0.3-0.4-0.6-0.7-0.8-1l-1.7-2.1c-1.1-1.4-2.4-2.7-3.6-4.2
		c1.6,0.9,3.3,1.8,4.8,2.9l2.2,1.8c0.4,0.3,0.7,0.6,1.1,0.9l1,1c0.7,0.7,1.3,1.4,1.9,2.1c0.6,0.7,1.1,1.5,1.7,2.3
		c0.3,0.4,0.6,0.8,0.8,1.2l0.7,1.2c0.5,0.8,1,1.6,1.4,2.5c1.7,3.4,2.8,7.2,3.2,10.9C322.6,269.5,322.5,273.4,321.3,277z"/>
	<path d="M321.3,294.5c-0.3-3.7-1-7.2-1.9-10.7c-1-3.4-2.1-6.7-3.7-9.8c-0.3-0.8-0.8-1.5-1.2-2.3l-0.6-1.2c-0.2-0.4-0.5-0.7-0.7-1.1
		c-0.5-0.7-0.9-1.5-1.4-2.2c-0.5-0.7-1-1.4-1.6-2.2l-0.8-1.1c-0.3-0.4-0.6-0.7-0.8-1l-1.7-2.1c-1.1-1.4-2.4-2.7-3.6-4.2
		c1.6,0.9,3.3,1.8,4.8,2.9l2.2,1.8c0.4,0.3,0.7,0.6,1.1,0.9l1,1c0.7,0.7,1.3,1.4,1.9,2.1c0.6,0.7,1.1,1.5,1.7,2.3
		c0.3,0.4,0.6,0.8,0.8,1.2l0.7,1.2c0.5,0.8,1,1.6,1.4,2.5c1.7,3.4,2.8,7.2,3.2,10.9C322.6,287.1,322.5,290.9,321.3,294.5z"/>
	<path d="M535.3,318.8c0,0,8.3,20.3,23.2,22.2c0,0-17,3-20.9,14.8"/>
	<g>
		<ellipse class="st1" cx="411.3" cy="341.3" rx="127.9" ry="90.6"/>
		<path d="M539.6,341.3c-0.1,14.5-4.8,28.9-13,40.9c-8.1,12.1-19.1,22.2-31.4,30.2c-6.2,3.9-12.7,7.4-19.5,10.3l-2.5,1.1l-2.6,1
			l-2.6,1c-0.9,0.3-1.7,0.6-2.6,0.9c-3.5,1.2-7,2.2-10.6,3.1c-1.8,0.4-3.6,0.9-5.3,1.3c-1.8,0.4-3.6,0.8-5.4,1.1l-5.4,0.9
			c-1.8,0.3-3.6,0.5-5.5,0.7c-7.3,0.9-14.6,1.2-21.9,1.1c-14.6-0.3-29.2-2.3-43.3-6.3c-7-2-13.9-4.4-20.6-7.2
			c-6.7-2.8-13.2-6.2-19.4-10c-12.4-7.6-23.7-17.2-32.3-29c-4.3-5.9-7.8-12.4-10.3-19.4c-2.5-6.9-3.9-14.3-4.1-21.7
			c-0.3-14.9,4.5-29.8,13-42c8.4-12.3,19.9-22.3,32.5-30c12.6-7.7,26.5-13.3,40.7-17c1.8-0.4,3.6-0.9,5.4-1.3l5.4-1.1l5.4-0.9
			c1.8-0.3,3.6-0.5,5.5-0.7c7.3-0.9,14.7-1.3,22-1.3c7.4,0.1,14.7,0.6,22,1.5c1.8,0.3,3.7,0.4,5.5,0.8l5.4,0.9l5.4,1.2
			c1.8,0.4,3.6,0.9,5.4,1.3c3.5,1,7.1,2,10.6,3.2c0.9,0.3,1.7,0.6,2.6,0.9l2.6,1l2.6,1l2.5,1.1c6.8,2.9,13.3,6.4,19.4,10.4
			c6.2,4,12,8.5,17.3,13.5c5.3,5,10.1,10.6,14.1,16.7l0.8,1.1l0.7,1.2l1.4,2.3c0.9,1.6,1.7,3.2,2.6,4.8c0.7,1.7,1.6,3.3,2.2,5l1,2.5
			c0.2,0.4,0.3,0.8,0.5,1.3l0.4,1.3C538.5,326.8,539.7,334,539.6,341.3z M538.9,341.3c-0.1-7.2-1.3-14.3-3.7-21
			c-2.4-6.7-5.8-13.1-10.1-18.8c-4.3-5.7-9.3-10.8-14.7-15.3c-5.5-4.5-11.4-8.5-17.6-11.9c-6.2-3.4-12.7-6.3-19.3-8.8l-2.5-0.9
			l-2.5-0.8l-2.5-0.8c-0.8-0.3-1.7-0.5-2.5-0.8c-3.4-1.1-6.8-1.9-10.2-2.8c-13.7-3.2-27.8-4.8-42-4.7c-14.1,0.1-28.2,1.7-41.9,5
			c-13.7,3.3-26.9,8.4-39,15.5c-12.1,7.1-23,16.3-31.2,27.5c-8.3,11.1-13.4,24.7-13.8,38.7c-0.1,7,0.9,14,3.1,20.7l0.4,1.3
			c0.1,0.4,0.3,0.8,0.5,1.2l0.9,2.5c0.6,1.6,1.4,3.2,2.2,4.8c0.9,1.5,1.7,3.1,2.6,4.6l1.4,2.3l0.7,1.1l0.8,1.1
			c8.1,11.7,19.2,21.2,31.5,28.4c6.2,3.6,12.6,6.7,19.3,9.2c6.7,2.5,13.5,4.5,20.5,6.1c6.9,1.6,14,2.7,21.1,3.3
			c7.1,0.7,14.2,0.9,21.3,0.8c14.2-0.3,28.3-1.9,42-5.3c3.4-0.8,6.8-1.8,10.2-2.8c0.8-0.3,1.7-0.5,2.5-0.8l2.5-0.9l2.5-0.9l2.5-0.9
			c6.6-2.5,13.1-5.4,19.2-8.9c6.2-3.4,12.1-7.4,17.6-11.9c5.5-4.5,10.5-9.6,14.7-15.4C533.7,369.8,538.9,355.6,538.9,341.3z"/>
	</g>
	<path d="M288.9,370.4c4.3,2.9,8.9,5.3,13.7,7.3c4.7,1.9,9.7,3.2,14.7,3.5c2.5,0.2,5,0.1,7.5-0.3c2.5-0.4,4.9-1.1,7.3-2
		c4.7-1.9,8.9-4.9,12.9-8.4c-3.2,4.1-7.2,7.7-12.1,10.1l-1.8,0.8c-0.6,0.3-1.3,0.5-1.9,0.7c-0.6,0.2-1.3,0.4-1.9,0.6
		c-0.7,0.2-1.3,0.4-2,0.5c-2.6,0.5-5.4,0.6-8.1,0.5c-2.7-0.2-5.3-0.6-7.9-1.3c-2.6-0.7-5.1-1.7-7.4-2.8
		C297,377.1,292.6,374.1,288.9,370.4z"/>
	<path d="M314,323.4c-0.1-1.3-0.3-2.5-0.6-3.7c-0.3-1.2-0.7-2.3-1.1-3.4c-0.1-0.3-0.3-0.5-0.4-0.8l-0.2-0.4
		c-0.1-0.1-0.1-0.3-0.2-0.4c-0.1-0.3-0.3-0.5-0.4-0.8c-0.2-0.2-0.3-0.5-0.5-0.8l-0.2-0.4c-0.1-0.1-0.2-0.2-0.3-0.4l-0.5-0.7
		c-0.3-0.5-0.7-0.9-1.1-1.5c0.5,0.3,1,0.6,1.5,1l0.7,0.6c0.1,0.1,0.2,0.2,0.3,0.3l0.3,0.4c0.2,0.2,0.4,0.5,0.6,0.7
		c0.2,0.3,0.4,0.5,0.5,0.8c0.1,0.1,0.2,0.3,0.3,0.4l0.2,0.4c0.1,0.3,0.3,0.6,0.4,0.9c0.5,1.2,0.9,2.5,1,3.8
		C314.4,320.8,314.3,322.2,314,323.4z"/>
	<path d="M312.4,326.1c-0.1-1.4-0.4-2.8-0.7-4.1c-0.4-1.3-0.8-2.6-1.4-3.8c-0.1-0.3-0.3-0.6-0.5-0.9l-0.2-0.4
		c-0.1-0.1-0.2-0.3-0.3-0.4c-0.2-0.3-0.4-0.6-0.5-0.9c-0.2-0.3-0.4-0.6-0.6-0.8l-0.3-0.4c-0.1-0.1-0.2-0.3-0.3-0.4l-0.6-0.8
		c-0.4-0.5-0.9-1-1.4-1.6c0.6,0.3,1.3,0.7,1.8,1.1l0.8,0.7c0.1,0.1,0.3,0.2,0.4,0.4l0.4,0.4c0.3,0.3,0.5,0.5,0.7,0.8
		c0.2,0.3,0.4,0.6,0.7,0.9c0.1,0.1,0.2,0.3,0.3,0.4l0.3,0.5c0.2,0.3,0.4,0.6,0.5,1c0.7,1.3,1.1,2.8,1.2,4.2
		C312.9,323.2,312.9,324.7,312.4,326.1z"/>
	<path d="M309.2,322.9c-0.1-0.8-0.2-1.6-0.4-2.3c-0.2-0.7-0.5-1.5-0.8-2.1c-0.1-0.2-0.2-0.3-0.3-0.5l-0.1-0.3c0-0.1-0.1-0.2-0.2-0.2
		c-0.1-0.2-0.2-0.3-0.3-0.5c-0.1-0.2-0.2-0.3-0.3-0.5l-0.2-0.2c-0.1-0.1-0.1-0.1-0.2-0.2l-0.4-0.5c-0.2-0.3-0.5-0.6-0.8-0.9
		c0.4,0.2,0.7,0.4,1,0.6l0.5,0.4c0.1,0.1,0.2,0.1,0.2,0.2l0.2,0.2c0.1,0.1,0.3,0.3,0.4,0.5c0.1,0.2,0.2,0.3,0.4,0.5
		c0.1,0.1,0.1,0.2,0.2,0.3l0.2,0.3c0.1,0.2,0.2,0.4,0.3,0.5c0.4,0.7,0.6,1.6,0.7,2.4C309.5,321.3,309.4,322.1,309.2,322.9z"/>
	<g>
		<g>
			<ellipse class="st0" cx="311.4" cy="332.5" rx="8.7" ry="13.7"/>
			<path d="M311.4,347.4c-5.6,0-10-6.6-10-14.9c0-8.4,4.4-14.9,10-14.9s10,6.6,10,14.9C321.4,340.8,317,347.4,311.4,347.4z
				 M311.4,320c-4.1,0-7.5,5.7-7.5,12.5c0,6.8,3.4,12.5,7.5,12.5s7.5-5.7,7.5-12.5C318.9,325.7,315.5,320,311.4,320z"/>
		</g>
		<circle cx="309.4" cy="334.4" r="6.6"/>
	</g>
	<path d="M411.3,250.7"/>
	<path d="M421.8,251.9l-51.7,0.8c0,0-13.1,35.7-7.8,84.3c5.3,48.6,24.7,93.2,24.7,93.2h49.5c0,0-10.2-32.3-11.9-93.2
		c-1.9-65.3,10.3-82.8,10.3-82.8L421.8,251.9z"/>
	<g>
		<path class="st2" d="M495.1,334.4c-2.6-36.5,6.3-57.4,6.3-57.4l3.9,1.5c-23.4-17.9-56.8-29.1-94-29.1
			c-70.7,0-127.9,40.5-127.9,90.6s57.3,90.6,127.9,90.6c38.8,0,73.5-12.2,97-31.5C504.1,395.4,497.4,366.8,495.1,334.4z"/>
		<path d="M495.1,334.4c2.3,32.4,9,61,13.2,64.6c19.3-15.9,31-36.5,31-59c0-23.7-12.9-45.3-34-61.4l-3.9-1.5
			C501.4,277,492.5,297.9,495.1,334.4z"/>
	</g>
</g>
<g>
	<g>
		<path class="st3" d="M323.5,288c-2.7-0.6-3.1-3.2-4-5.5c-0.5-1.2-1.1-2.5-1.4-3.7c-0.4-1.6-0.9-5.6,1.7-4.9
			c0.9,0.2,1.7,0.7,2.3,1.3c1.6,1.5,2.2,3.9,2.8,5.9c0.9,3.2,2.2,4.6-0.5,6.8L323.5,288z"/>
	</g>
	<g>
		<path class="st3" d="M321.5,274.2c1.2-1.6,2.1-3.3,3.2-4.9c1.1-1.8,2.4-3.5,3.1-5.5c1.4-3.6,1.5-8.1,4.8-10.6
			c3.4-2.6,7.5,2.7,8.9,5.3c0.8,1.6,1.6,3.7,1.6,5.6c0,0.9-0.7,2.4-0.5,3.2c0.1,0.3,1,0.5,1.3,0.6c1.1,0.3,2,0.4,2.5,1.6
			c1.3,2.9-0.1,4.6-0.7,7.4c-0.3,1.3,0.2,2.6,0,3.8c-0.4,4-5.5,5.6-8.8,6.2c-1.1,0.2-2.3,0.3-3.4,0.3c0,0-1.2,0-1.2,0.1
			c-0.1,0.6,1.3,1.8,1.8,2.1c1.6,1.2,3.3,2.2,4.7,3.5c0.4,0.3,1.3,0.9,1.5,1.4c0,0.1-1.6,0.6-1.9,1c-0.7,0.9-0.5,2.3-0.2,3.2
			c0,0.1-0.2-0.1-0.3-0.2c-0.3-0.2-0.6-0.5-0.8-0.7c-0.8-0.7-1.5-1.6-2.2-2.3c-2.2-2.2-4.6-3.9-7.1-5.7c-0.3-0.2-2.2-1.9-2.5-1.7
			c-1.1,0.7-0.8,2.7-0.6,3.7c0.5,3.1,0.6,6.2,0.8,9.2c0.1,1.1,0.2,2.2,0.4,3.2c0.1,0.3,0.1,0.7,0.2,1c0,0.2,0.2,0.6,0.1,0.5
			c-0.9-0.5-1,0.3-1.6-0.5c-0.2-0.3-0.4-0.5-0.5-0.8c0,0-0.3-0.5-0.3-0.5c0,0.9-0.4,1.5-0.8,2.3c-0.1,0.1-1.1-0.6-1.2-0.7
			c-0.2-0.2-0.4-0.4-0.6-0.7c-1.3-1.8-1.4-3.8-1.3-5.9c0-0.9,0-1.9-0.1-2.8c0-0.1,0.1-0.2,0-0.2c-3.1,0.5-5.5,4.2-9.5,3.2
			c-0.9-0.2-1.6-0.7-2.1-1.5c-1.1-2,1.6-3.5,2.6-4.9c0.8-1.1,1.3-2.3,1.3-3.6c0.2-4.4-4-7.1-4.3-11.3c-0.3-5.5,5.3-4.5,8.1-1.8
			L321.5,274.2z"/>
	</g>
	<g>
		<path class="st3" d="M313.8,298.5c-1.5,0.1-5,0.5-6-1.2c-0.3-0.6-0.5-1.3-0.5-2c0-0.1,0-0.5,0-0.5c-0.1-0.1-3.9-0.4-4.4-0.4
			c-3.2-0.5-6.4-2.1-7.8-5.1c-1.8-3.6,1.1-4.7,0.4-7.2c-1-3.5-4.1-5.1-2.9-9.2c0.4-1.3,1-2.5,1.9-3.4c3.2-3.3,6.6-0.6,9.7,1
			c1.8,0.9,3.7,1.8,5.7,2.5c1.6,0.6,5.1,1,6.2,2.2c1.9,2.1,2.2,4.7,2.4,7.4L313.8,298.5z"/>
	</g>
	<g>
		<path class="st4" d="M318.3,275.1c0.7,2.6,1.2,5.2,3.2,7.2c1.3,1.3,3.8,1.3,4.2,3.4c0.4,2.3-2.2,3.1-3.6,1.5
			c-2.3-2.7-2.6-5.4-3.1-8.7L318.3,275.1z"/>
	</g>
	<g>
		<path class="st4" d="M317.8,275.4c-1.7,4.3-6.7,5.9-11,6.4c-1.5,0.1-2.9,0.3-4.4,0.4c-0.5,0-1.1,0.1-1.6,0c-0.2,0-0.4,0-0.6,0
			c0,0-0.1,0-0.1,0c0.9,0.8,2.5,1,3.7,1.2c4.3,0.6,6.8-0.7,10.7-2.2c1.1-0.4,2.2-0.8,3.2-1.4c0.3-0.2,0.9-0.4,1.1-0.8L317.8,275.4z"
			/>
	</g>
	<g>
		<path class="st4" d="M318.6,280.9c0,1.1,0,2.1-0.3,3.2c-1.4,4.9-5.5,6.6-10.1,7.6c-2.1,0.5-4.2,0.9-6.3,1.1
			c-0.6,0.1-1.1,0.1-1.7,0c-0.3,0-0.7-0.2-1-0.2c-0.2,0,0.1,0.3,0.2,0.5c1.1,1.7,4.9,1.5,6.7,1.3c1.2-0.2,2.4-0.5,3.6-0.9
			c1-0.3,1.9-0.8,2.8-1.3c2.6-1.4,5.3-3,6.8-5.6c0.3-0.6,0.8-1.2,0.9-1.9c0.1-0.7-0.2-1.5-0.5-2.2L318.6,280.9z"/>
	</g>
	<g>
		<path class="st4" d="M321.4,287.9c-0.8,2.9-3.1,5.1-5.2,7.1c-0.6,0.6-1.2,1.2-1.8,1.9c-0.4,0.4-1,1.2-1,1.2c0.8,0.8,3.2-0.6,3.8-1
			c3.7-2.4,4.3-4.4,5.4-8.2L321.4,287.9z"/>
	</g>
	<g>
		<path class="st4" d="M321.8,274.8c4,2.7,10.8-0.1,14.3-2.4c1.2-0.8,2.3-1.8,3.4-2.8c0.4-0.4,0.7-0.7,1.1-1.1
			c0.1-0.1,0.4-0.5,0.4-0.4c0.5,1.4-0.6,2.9-1.5,3.8c-2.4,2.5-5.9,4.9-9.2,6c-1.3,0.5-2.7,0.7-4.1,0.5c-0.5-0.1-0.9-0.1-1.4-0.2
			c-0.2,0-0.8-0.2-0.6-0.1c2.5,0.6,5.2-0.6,7.5-1.2c0.7-0.2,1.5-0.4,2.2-0.6c0.3-0.1,0.6-0.2,0.9-0.3c0.1,0,0.3-0.2,0.3-0.1
			c-1.7,1.7-8,5.3-10.8,3.4L321.8,274.8z"/>
	</g>
	<g>
		<path class="st4" d="M342.8,279.8c-2.7,2.1-7.9,3.6-11.3,3.8c-1.5,0.1-3.2,0-4.6-0.4c-0.2-0.1-0.5-0.2-0.7-0.3
			c0,0-0.6-0.4-0.6-0.4c0.6-0.6,2.9-0.2,3.8-0.2c2.5,0,5.4,0,7.8-0.8L342.8,279.8z"/>
	</g>
	<g>
		<path class="st4" d="M325.5,280.5c4,1.4,8.3-0.2,12.2-1.1c1.5-0.4,3-0.7,4.5-0.9c1-0.2,1.4-0.2,1.4-0.2c0.1,0.4-0.5,1-0.7,1.2
			c-0.9,0.9-2.1,1.5-3.3,2c-3.2,1.3-6.4,1.3-9.8,1.1c-1.2-0.1-2.8,0-4-0.7L325.5,280.5z"/>
	</g>
	<g>
		<path class="st4" d="M331.5,287.2c-0.6,1.3-2.3,2.5-3.8,2.3c-0.7-0.1-1.7-1.4-2.5-0.6c-0.7,0.7-0.8,2-1.1,2.9
			c-0.3,0.8-0.9,1.5-1.6,2.1c-0.3,0.3-0.7,0.6-1.1,0.9c-0.1,0.1-0.2,0.2-0.3,0.2c-0.2-0.2-0.1-0.7-0.1-1c0.1-0.7,0.2-1.5,0.4-2.2
			c0.4-1.1,1.1-2.3,2-2.9c0.5-0.3,1.1-0.4,1.6-0.6c0.5-0.3,0.9-0.7,1.5-1c1-0.4,2-0.2,2.9-0.1L331.5,287.2z"/>
	</g>
	<path class="st5" d="M346.6,267.6c-1-0.6-2.2-0.6-3.1-0.4c0.7-1.9,0.7-3.7,0.5-5.2c-0.7-5.3-4.9-9.2-7.6-10.1
		c-1.2-0.5-2.4-0.4-3.4,0.1c-2.9,1.4-4.4,6.4-6.1,12.2l-0.2,0.6c-1.7,5.9-4.8,7.8-5.6,8.3c-1.4-0.4-2.8,0.5-3.6,1.4
		c-2.4-0.6-13.1-3.4-16.9-7.4c-1.1-1.1-3.6-0.4-5.5,0.8c-1.4,0.9-5.8,4.3-3.3,10.5c0.6,1.5,1.6,2.7,2.9,3.6
		c-0.8,1.9-2.7,6.8,0.4,9.6c3.5,3.2,7.4,4.5,11.8,3.7c-0.3,1-0.5,2.1-0.1,3.1c0.3,0.7,0.9,1.1,1.7,1.3c1.6,0.4,6.3,0.9,10.9-4
		c-0.1,3.8,0.1,10.4,3,12.3c0.3,0.2,0.6,0.2,0.8,0c0.3-0.1,0.4-0.4,0.5-0.7c0-0.4,0.1-1.3,0.4-2.2c0.6,0.8,1.4,1.7,2.6,2
		c0.2,0,0.3,0,0.5,0c0.1,0,0.2-0.1,0.3-0.2c0.2-0.2,0.3-0.5,0.2-0.8c-1.4-6.9-2.5-14.7-2.1-17.1c3.4,1,9.5,7.1,12.5,10.5
		c0.2,0.4,0.5,0.7,0.9,1c0.3,0.3,0.8,0.2,1.1-0.1c0.3-0.3,0.3-0.8,0-1.1c-0.1-0.1-0.4-0.4-0.7-0.8c-0.5-0.9-0.4-2.1-0.3-2.7
		c0.8-0.1,1.6,0,1.6,0c0.3,0,0.6-0.1,0.8-0.3c0.2-0.3,0.2-0.6,0.1-0.9c-1.4-2.9-5.1-5.5-7.6-7.1c1.6-0.2,3.5-0.4,5.6-0.7
		c2.8-0.4,4.8-1.6,5.9-3.4c1.4-2.2,1-4.8,0.7-5.8c1.6-2.4,2.1-5.4,1.9-7.5C347.9,268.7,347.2,268,346.6,267.6z M328.3,265.3l0.2-0.6
		c1.5-5.2,3-10.1,5.2-11.2c0.6-0.3,1.3-0.3,2,0c2.3,0.9,5.8,4.4,6.5,8.8c0.6,4-1.5,7.9-5.9,11.2c-5,3.7-10.3,4.1-12.1,3.6
		c-0.6-1.2-1.2-2.2-1.7-2.9C324,273.2,326.7,270.8,328.3,265.3z M295.1,270c1.9-1.6,3.8-1.9,4.2-1.7c4.2,4.3,15.2,7.2,17.7,7.8
		c0.2,0.7,0.6,2,1,3.6c-5.4,2.7-14.3,4.2-20.1,2.1c-0.6-0.2-1.2-0.5-1.7-0.8c0,0,0,0,0,0c-1.4-0.8-2.3-1.9-2.8-3.2
		C291.7,273.7,293.7,271.2,295.1,270z M296.2,290.4c-2.2-2-0.8-5.9,0-7.5c0.4,0.2,0.8,0.4,1.2,0.5c6.1,2.2,15.3,0.7,21.1-2.1
		c0.4,1.4,0.8,2.9,1.2,4c-1,1.1-4.3,4.8-7.3,6.3C303.8,296,299.1,293,296.2,290.4z M314.5,297.4c-2.5,1.2-4.6,1-5.7,0.7
		c-0.3-0.1-0.4-0.2-0.5-0.3c-0.3-0.6,0.1-1.9,0.5-2.8c1.4-0.4,2.8-1,4.3-1.7c2.8-1.5,5.8-4.4,7.3-6c0.5,0.9,1,1.4,1.5,1.7
		c-0.7,1.4-1.4,2.6-2.2,3.7c0,0-0.1,0.1-0.1,0.1C318.1,294.9,316.4,296.5,314.5,297.4z M324.5,298.3c0.3,2.3,0.7,4.5,1,6.1
		c-0.4-0.5-0.6-1.1-0.7-1.4c-0.1-0.3-0.4-0.5-0.7-0.6c-0.1,0-0.3,0-0.4,0c-0.2,0.1-0.3,0.2-0.4,0.3c-0.5,0.8-0.9,1.8-1.1,2.6
		c-1.4-2.7-1.4-8.3-1.1-12c0.8-1.2,1.6-2.5,2.3-4.1c0.1,0,0.2,0,0.3,0C323.7,290.7,323.8,293.3,324.5,298.3z M325.4,285.5
		c0,0.4,0.1,0.7,0,0.9c0,0,0,0,0,0.1c0,0.3-0.1,0.4-0.1,0.4c-0.8,0.6-1.5,0.8-2.2,0.7c0,0,0,0,0,0c0,0-0.1,0-0.1,0
		c-0.7-0.2-1.3-1-1.7-2.3c0,0,0,0,0,0c-0.9-2.8-2.3-8.1-2.8-9.7c0.5-0.5,1.4-1.2,2-0.9c0,0,0,0,0,0C321.7,275.4,325,282,325.4,285.5
		z M339.3,294.2c-0.3,0-0.7,0.1-1,0.2c-0.3,0.1-0.5,0.3-0.6,0.6c0,0.1-0.2,0.6-0.3,1.5c-2.8-3-7.2-7.1-10.5-8.5
		c0-0.1,0.1-0.1,0.1-0.2c0.9,0.2,2.2,0.2,3.9,0.2C331.9,288.3,336.9,291,339.3,294.2z M344,282.6c-0.8,1.4-2.4,2.2-4.7,2.6
		c-7.2,1.2-10.9,1-12.1,0.7c0-0.1,0-0.3,0-0.4c-0.1-0.8-0.3-1.7-0.6-2.7c2,0.1,6.1,0.3,11.6-0.4c2.9-0.3,5-1.5,6.5-2.9
		C344.7,280.3,344.6,281.5,344,282.6z M346.3,270.3c0.4,3.5-1.6,9.5-8.4,10.3c-6.1,0.7-10.5,0.5-12,0.3c-0.3-0.7-0.5-1.4-0.8-2.1
		c2.8,0.2,7.6-0.7,12.2-4.1c2.6-1.9,4.2-3.8,5.2-5.7c0.8-0.2,2.3-0.6,3.1,0C346.1,269.3,346.3,269.7,346.3,270.3z"/>
</g>
</svg>
