<?xml version="1.0" encoding="utf-8"?>
<!-- Generator: Adobe Illustrator 25.2.1, SVG Export Plug-In . SVG Version: 6.00 Build 0)  -->
<svg version="1.1" id="Warstwa_1" xmlns="http://www.w3.org/2000/svg" xmlns:xlink="http://www.w3.org/1999/xlink" x="0px" y="0px"
	 viewBox="0 0 841.9 595.3" style="enable-background:new 0 0 841.9 595.3;" xml:space="preserve">
<style type="text/css">
	.st0{fill:#FFFFFF;}
	.st1{fill:#1D1D1B;}
	.st2{fill:#FAB90F;}
	.st3{fill:none;}
</style>
<g>
	<g>
		
			<ellipse transform="matrix(0.2835 -0.959 0.959 0.2835 77.2405 541.0382)" class="st0" cx="400.7" cy="218.8" rx="57.3" ry="28.2"/>
		<path class="st1" d="M428,226.9c-1.7,5.5-3.5,11-5.8,16.4c-2.3,5.3-4.8,10.6-8.1,15.5c-1.6,2.4-3.4,4.8-5.4,7
			c-2,2.2-4.2,4.3-6.7,6c-2.5,1.7-5.3,3.2-8.4,4c-1.5,0.4-3.2,0.6-4.8,0.6c-1.6,0-3.3-0.3-4.9-0.8c-1.6-0.5-3-1.3-4.4-2.2
			c-1.3-1-2.5-2-3.5-3.3c-2-2.4-3.4-5.2-4.5-8c-1-2.8-1.7-5.7-2.2-8.6c-0.5-2.9-0.8-5.8-0.9-8.7c-0.3-5.8,0-11.6,0.7-17.4
			c0.4-2.9,0.8-5.8,1.3-8.6c0.5-2.9,1.2-5.7,1.9-8.5c2.9-11.3,7.4-22.3,14.3-32c3.5-4.8,7.5-9.4,12.6-12.9c2.5-1.8,5.4-3.3,8.5-4.1
			c1.6-0.4,3.2-0.7,4.9-0.7c1.7,0,3.4,0.2,5,0.7c1.6,0.5,3.2,1.3,4.6,2.2c1.4,1,2.6,2.1,3.7,3.3c2.2,2.4,3.7,5.2,4.8,8.1
			c1.1,2.9,1.9,5.8,2.3,8.8c0.5,3,0.6,5.9,0.7,8.9c0.1,5.9-0.7,11.7-1.7,17.4C431,215.7,429.7,221.4,428,226.9z M427.5,226.8
			c3.3-11,4.3-22.7,3-34c-0.7-5.6-2-11.1-4.1-16c-1.1-2.4-2.5-4.7-4.2-6.6c-0.8-0.9-1.8-1.7-2.8-2.4c-1-0.6-2.1-1.1-3.2-1.5
			c-1.1-0.3-2.3-0.5-3.5-0.5c-1.2,0-2.4,0.2-3.6,0.5c-2.4,0.6-4.8,1.9-7,3.3c-4.5,3-8.3,7-11.7,11.5c-3.4,4.4-6.3,9.3-8.8,14.3
			c-1.3,2.5-2.5,5.1-3.6,7.7c-1.1,2.6-2.1,5.3-3,8c-1.8,5.4-3.3,11-4.1,16.6c-0.8,5.7-1.2,11.4-0.8,17.1c0.5,5.7,1.6,11.3,4,16.4
			c1.2,2.5,2.7,4.8,4.5,6.7c0.9,0.9,1.9,1.7,3,2.4c1.1,0.6,2.2,1.1,3.4,1.5c1.2,0.3,2.4,0.4,3.7,0.4c1.2-0.1,2.5-0.2,3.7-0.6
			c2.5-0.7,4.8-1.9,7.1-3.4c4.5-3,8.5-7,12.1-11.3C418.8,248.2,424.3,237.8,427.5,226.8z"/>
	</g>
	<g>
		<ellipse transform="matrix(0.2835 -0.959 0.959 0.2835 74.7865 577.6339)" class="st0" cx="424" cy="238.8" rx="57.3" ry="28.2"/>
		<path class="st1" d="M451.3,246.8c-1.7,5.5-3.5,11-5.8,16.4c-2.3,5.3-4.8,10.6-8.1,15.5c-1.6,2.4-3.4,4.8-5.4,7
			c-2,2.2-4.2,4.3-6.7,6c-2.5,1.7-5.3,3.2-8.4,4c-1.5,0.4-3.2,0.6-4.8,0.6c-1.6,0-3.3-0.3-4.9-0.8c-1.6-0.5-3-1.3-4.4-2.2
			c-1.3-1-2.5-2-3.5-3.3c-2-2.4-3.4-5.2-4.5-8c-1-2.8-1.7-5.7-2.2-8.6c-0.5-2.9-0.8-5.8-0.9-8.7c-0.3-5.8,0-11.6,0.7-17.4
			c0.4-2.9,0.8-5.8,1.3-8.6c0.5-2.9,1.2-5.7,1.9-8.5c2.9-11.3,7.4-22.3,14.3-32c3.5-4.8,7.5-9.4,12.6-12.9c2.5-1.8,5.4-3.3,8.5-4.1
			c1.6-0.4,3.2-0.7,4.9-0.7c1.7,0,3.4,0.2,5,0.7c1.6,0.5,3.2,1.3,4.6,2.2c1.4,1,2.6,2.1,3.7,3.3c2.2,2.4,3.7,5.2,4.8,8.1
			c1.1,2.9,1.9,5.8,2.3,8.8c0.5,3,0.6,5.9,0.7,8.9c0.1,5.9-0.7,11.7-1.7,17.4C454.3,235.7,453,241.3,451.3,246.8z M450.8,246.7
			c3.3-11,4.3-22.7,3-34c-0.7-5.6-2-11.1-4.1-16c-1.1-2.4-2.5-4.7-4.2-6.6c-0.8-0.9-1.8-1.7-2.8-2.4c-1-0.6-2.1-1.1-3.2-1.5
			c-1.1-0.3-2.3-0.5-3.5-0.5c-1.2,0-2.4,0.2-3.6,0.5c-2.4,0.6-4.8,1.9-7,3.3c-4.5,3-8.3,7-11.7,11.5c-3.4,4.4-6.3,9.3-8.8,14.3
			c-1.3,2.5-2.5,5.1-3.6,7.7c-1.1,2.6-2.1,5.3-3,8c-1.8,5.4-3.3,11-4.1,16.6c-0.8,5.7-1.2,11.4-0.8,17.1c0.5,5.7,1.6,11.3,4,16.4
			c1.2,2.5,2.7,4.8,4.5,6.7c0.9,0.9,1.9,1.7,3,2.4c1.1,0.6,2.2,1.1,3.4,1.5c1.2,0.3,2.4,0.4,3.7,0.4c1.2-0.1,2.5-0.2,3.7-0.6
			c2.5-0.7,4.8-1.9,7.1-3.4c4.5-3,8.5-7,12.1-11.3C442.1,268.1,447.6,257.7,450.8,246.7z"/>
	</g>
	<path class="st1" d="M322.2,276.8c-0.3-3.7-1-7.2-1.9-10.7c-1-3.4-2.1-6.7-3.7-9.8c-0.3-0.8-0.8-1.5-1.2-2.3l-0.6-1.2
		c-0.2-0.4-0.5-0.7-0.7-1.1c-0.5-0.7-0.9-1.5-1.4-2.2c-0.5-0.7-1-1.4-1.6-2.2l-0.8-1.1c-0.3-0.4-0.6-0.7-0.8-1l-1.7-2.1
		c-1.1-1.4-2.4-2.7-3.6-4.2c1.6,0.9,3.3,1.8,4.8,2.9l2.2,1.8c0.4,0.3,0.7,0.6,1.1,0.9l1,1c0.7,0.7,1.3,1.4,1.9,2.1
		c0.6,0.7,1.1,1.5,1.7,2.3c0.3,0.4,0.6,0.8,0.8,1.2l0.7,1.2c0.5,0.8,1,1.6,1.4,2.5c1.7,3.4,2.8,7.2,3.2,10.9
		C323.6,269.3,323.5,273.2,322.2,276.8z"/>
	<path class="st1" d="M322.2,294.3c-0.3-3.7-1-7.2-1.9-10.7c-1-3.4-2.1-6.7-3.7-9.8c-0.3-0.8-0.8-1.5-1.2-2.3l-0.6-1.2
		c-0.2-0.4-0.5-0.7-0.7-1.1c-0.5-0.7-0.9-1.5-1.4-2.2c-0.5-0.7-1-1.4-1.6-2.2l-0.8-1.1c-0.3-0.4-0.6-0.7-0.8-1l-1.7-2.1
		c-1.1-1.4-2.4-2.7-3.6-4.2c1.6,0.9,3.3,1.8,4.8,2.9l2.2,1.8c0.4,0.3,0.7,0.6,1.1,0.9l1,1c0.7,0.7,1.3,1.4,1.9,2.1
		c0.6,0.7,1.1,1.5,1.7,2.3c0.3,0.4,0.6,0.8,0.8,1.2l0.7,1.2c0.5,0.8,1,1.6,1.4,2.5c1.7,3.4,2.8,7.2,3.2,10.9
		C323.6,286.9,323.5,290.8,322.2,294.3z"/>
	<path class="st1" d="M536.3,318.6c0,0,8.3,20.3,23.2,22.2c0,0-17,3-20.9,14.8"/>
	<g>
		<ellipse class="st2" cx="412.3" cy="341.1" rx="127.9" ry="90.6"/>
		<path class="st1" d="M540.6,341.1c-0.1,14.5-4.8,28.9-13,40.9c-8.1,12.1-19.1,22.2-31.4,30.2c-6.2,3.9-12.7,7.4-19.5,10.3
			l-2.5,1.1l-2.6,1l-2.6,1c-0.9,0.3-1.7,0.6-2.6,0.9c-3.5,1.2-7,2.2-10.6,3.1c-1.8,0.4-3.6,0.9-5.3,1.3c-1.8,0.4-3.6,0.8-5.4,1.1
			l-5.4,0.9c-1.8,0.3-3.6,0.5-5.5,0.7c-7.3,0.9-14.6,1.2-21.9,1.1c-14.6-0.3-29.2-2.3-43.3-6.3c-7-2-13.9-4.4-20.6-7.2
			c-6.7-2.8-13.2-6.2-19.4-10c-12.4-7.6-23.7-17.2-32.3-29c-4.3-5.9-7.8-12.4-10.3-19.4c-2.5-6.9-3.9-14.3-4.1-21.7
			c-0.3-14.9,4.5-29.8,13-42c8.4-12.3,19.9-22.3,32.5-30c12.6-7.7,26.5-13.3,40.7-17c1.8-0.4,3.6-0.9,5.4-1.3l5.4-1.1l5.4-0.9
			c1.8-0.3,3.6-0.5,5.5-0.7c7.3-0.9,14.7-1.3,22-1.3c7.4,0.1,14.7,0.6,22,1.5c1.8,0.3,3.7,0.4,5.5,0.8l5.4,0.9l5.4,1.2
			c1.8,0.4,3.6,0.9,5.4,1.3c3.5,1,7.1,2,10.6,3.2c0.9,0.3,1.7,0.6,2.6,0.9l2.6,1l2.6,1l2.5,1.1c6.8,2.9,13.3,6.4,19.4,10.4
			c6.2,4,12,8.5,17.3,13.5c5.3,5,10.1,10.6,14.1,16.7l0.8,1.1l0.7,1.2l1.4,2.3c0.9,1.6,1.7,3.2,2.6,4.8c0.7,1.7,1.6,3.3,2.2,5l1,2.5
			c0.2,0.4,0.3,0.8,0.5,1.3l0.4,1.3C539.4,326.6,540.7,333.8,540.6,341.1z M539.9,341.1c-0.1-7.2-1.3-14.3-3.7-21
			c-2.4-6.7-5.8-13.1-10.1-18.8c-4.3-5.7-9.3-10.8-14.7-15.3c-5.5-4.5-11.4-8.5-17.6-11.9c-6.2-3.4-12.7-6.3-19.3-8.8l-2.5-0.9
			l-2.5-0.8l-2.5-0.8c-0.8-0.3-1.7-0.5-2.5-0.8c-3.4-1.1-6.8-1.9-10.2-2.8c-13.7-3.2-27.8-4.8-42-4.7c-14.1,0.1-28.2,1.7-41.9,5
			c-13.7,3.3-26.9,8.4-39,15.5c-12.1,7.1-23,16.3-31.2,27.5c-8.3,11.1-13.4,24.7-13.8,38.7c-0.1,7,0.9,14,3.1,20.7l0.4,1.3
			c0.1,0.4,0.3,0.8,0.5,1.2l0.9,2.5c0.6,1.6,1.4,3.2,2.2,4.8c0.9,1.5,1.7,3.1,2.6,4.6l1.4,2.3l0.7,1.1l0.8,1.1
			c8.1,11.7,19.2,21.2,31.5,28.4c6.2,3.6,12.6,6.7,19.3,9.2c6.7,2.5,13.5,4.5,20.5,6.1c6.9,1.6,14,2.7,21.1,3.3
			c7.1,0.7,14.2,0.9,21.3,0.8c14.2-0.3,28.3-1.9,42-5.3c3.4-0.8,6.8-1.8,10.2-2.8c0.8-0.3,1.7-0.5,2.5-0.8l2.5-0.9l2.5-0.9l2.5-0.9
			c6.6-2.5,13.1-5.4,19.2-8.9c6.2-3.4,12.1-7.4,17.6-11.9c5.5-4.5,10.5-9.6,14.7-15.4C534.7,369.6,539.9,355.4,539.9,341.1z"/>
	</g>
	<path class="st1" d="M289.8,370.2c4.3,2.9,8.9,5.3,13.7,7.3c4.7,1.9,9.7,3.2,14.7,3.5c2.5,0.2,5,0.1,7.5-0.3c2.5-0.4,4.9-1.1,7.3-2
		c4.7-1.9,8.9-4.9,12.9-8.4c-3.2,4.1-7.2,7.7-12.1,10.1l-1.8,0.8c-0.6,0.3-1.3,0.5-1.9,0.7c-0.6,0.2-1.3,0.4-1.9,0.6
		c-0.7,0.2-1.3,0.4-2,0.5c-2.6,0.5-5.4,0.6-8.1,0.5c-2.7-0.2-5.3-0.6-7.9-1.3c-2.6-0.7-5.1-1.7-7.4-2.8
		C298,376.9,293.5,373.9,289.8,370.2z"/>
	<g>
		<g>
			<ellipse class="st0" cx="312.4" cy="332.3" rx="8.7" ry="13.7"/>
			<path class="st1" d="M312.4,347.2c-5.6,0-10-6.6-10-14.9c0-8.4,4.4-14.9,10-14.9s10,6.6,10,14.9
				C322.3,340.7,318,347.2,312.4,347.2z M312.4,319.8c-4.1,0-7.5,5.7-7.5,12.5c0,6.8,3.4,12.5,7.5,12.5s7.5-5.7,7.5-12.5
				C319.9,325.5,316.4,319.8,312.4,319.8z"/>
		</g>
		<circle class="st1" cx="310.4" cy="334.2" r="6.6"/>
	</g>
	<path class="st1" d="M412.3,250.5"/>
	<path class="st1" d="M422.8,251.7l-51.7,0.8c0,0-13.1,35.7-7.8,84.3c5.3,48.6,24.7,93.2,24.7,93.2h49.5c0,0-10.2-32.3-11.9-93.2
		c-1.9-65.3,10.3-82.8,10.3-82.8L422.8,251.7z"/>
	<g>
		<path class="st3" d="M496.1,334.2c-2.6-36.5,6.3-57.4,6.3-57.4l3.9,1.5c-23.4-17.9-56.8-29.1-94-29.1
			c-70.7,0-127.9,40.5-127.9,90.6s57.3,90.6,127.9,90.6c38.8,0,73.5-12.2,97-31.5C505.1,395.2,498.4,366.6,496.1,334.2z"/>
		<path class="st1" d="M496.1,334.2c2.3,32.4,9,61,13.2,64.6c19.3-15.9,31-36.5,31-59c0-23.7-12.9-45.3-34-61.4l-3.9-1.5
			C502.4,276.8,493.5,297.7,496.1,334.2z"/>
	</g>
</g>
</svg>
