<?xml version="1.0" encoding="utf-8"?>
<!-- Generator: Adobe Illustrator 28.0.0, SVG Export Plug-In . SVG Version: 6.00 Build 0)  -->
<svg version="1.1" id="Warstwa_1" xmlns="http://www.w3.org/2000/svg" xmlns:xlink="http://www.w3.org/1999/xlink" x="0px" y="0px"
	 viewBox="0 0 610 182" style="enable-background:new 0 0 610 182;" xml:space="preserve">
<style type="text/css">
	.st0{display:none;fill:#FAB90F;}
	.st1{font-family:'Inter-Black';}
	.st2{font-size:240px;}
	.st3{letter-spacing:-12;}
	.st4{fill:#FAB90F;}
	.st5{fill:#FFFFFF;}
	.st6{fill:none;}
</style>
<text transform="matrix(1 0 0 1 65.0722 156.2843)" class="st0 st1 st2 st3">404</text>
<g>
	<g>
		<path class="st4" d="M304.7,181.9c-15.9-0.1-29.5-3.7-41.1-11c-11.5-7.3-20.4-17.8-26.7-31.4c-6.3-13.7-9.3-30.1-9.3-49.3
			c0.1-19.2,3.2-35.5,9.4-48.9c6.2-13.4,15.1-23.6,26.6-30.6c11.5-7,25.2-10.5,41-10.5c15.9,0,29.5,3.5,41.1,10.5
			c11.5,7,20.4,17.2,26.7,30.6c6.2,13.4,9.3,29.7,9.3,48.8c0,19.3-3.1,35.7-9.4,49.4c-6.2,13.7-15.1,24.2-26.6,31.4
			S320.6,181.9,304.7,181.9z M304.7,143.3c8.2,0,14.9-4.3,20.2-12.8c5.3-8.6,7.9-22,7.8-40.4c0-12-1.2-21.8-3.6-29.4
			c-2.4-7.6-5.7-13.3-9.9-16.9c-4.2-3.7-9-5.5-14.5-5.5c-8.2,0-14.9,4.1-20,12.4c-5.2,8.3-7.8,21.4-7.9,39.4
			c-0.1,12.2,1.1,22.3,3.5,30.1c2.4,7.9,5.7,13.7,9.9,17.4C294.4,141.5,299.3,143.3,304.7,143.3z"/>
		<path class="st4" d="M390.2,149.8V113L460.5,2.5h33.4v49.1h-19.1l-37.8,60v1.4h103.6v36.8H390.2z M475.1,177.1v-38.5l1-16V2.5
			h44.3v174.5H475.1z"/>
	</g>
	<g>
		<g>
			
				<ellipse transform="matrix(0.9259 -0.3779 0.3779 0.9259 27.9848 223.1714)" class="st5" cx="582.7" cy="40.3" rx="5.7" ry="11.7"/>
			<path d="M576.2,39.1c-0.3-1.1-0.6-2.3-0.7-3.5c-0.1-0.6-0.1-1.2,0-1.8c0-0.6,0.1-1.2,0.3-1.8c0.2-0.6,0.4-1.2,0.8-1.7
				c0.2-0.3,0.4-0.5,0.7-0.7c0.3-0.2,0.6-0.4,0.9-0.5c0.3-0.1,0.7-0.2,1-0.2c0.3,0,0.7,0,1,0c0.7,0.1,1.3,0.4,1.8,0.7
				c1.1,0.6,2,1.5,2.8,2.4c1.6,1.8,2.7,4,3.5,6.2c0.2,0.6,0.4,1.1,0.6,1.7c0.2,0.6,0.3,1.1,0.4,1.7c0.2,1.2,0.4,2.3,0.5,3.5
				c0,0.6,0,1.2,0,1.8c0,0.6-0.1,1.2-0.3,1.8c-0.2,0.6-0.4,1.2-0.7,1.7c-0.2,0.3-0.4,0.5-0.6,0.7c-0.3,0.2-0.5,0.4-0.8,0.5
				c-0.3,0.1-0.6,0.2-1,0.3c-0.3,0-0.7,0-1,0c-0.6-0.1-1.2-0.3-1.8-0.6c-0.5-0.3-1-0.7-1.5-1.1c-0.5-0.4-0.9-0.9-1.2-1.3
				c-0.8-0.9-1.4-1.9-1.9-3c-0.6-1-1.1-2.1-1.5-3.2C576.9,41.4,576.5,40.3,576.2,39.1z M581.3,48.2c0.8,0.8,1.7,1.5,2.7,2
				c0.5,0.3,1,0.5,1.5,0.5c0.3,0,0.5,0.1,0.8,0c0.3,0,0.5-0.1,0.7-0.2c0.2-0.1,0.5-0.2,0.7-0.4c0.2-0.2,0.4-0.3,0.6-0.5
				c0.3-0.4,0.6-0.9,0.8-1.4c0.4-1.1,0.5-2.2,0.5-3.4c0-1.2-0.2-2.3-0.5-3.4c-0.3-1.1-0.7-2.2-1.2-3.3c-0.2-0.5-0.5-1-0.8-1.6
				c-0.3-0.5-0.6-1-0.9-1.5c-0.6-1-1.3-1.9-2.1-2.7c-0.8-0.8-1.6-1.6-2.6-2.1c-0.5-0.2-1-0.4-1.5-0.5c-0.3,0-0.5,0-0.7,0
				c-0.2,0-0.5,0.1-0.7,0.2c-0.2,0.1-0.4,0.2-0.6,0.4c-0.2,0.2-0.4,0.3-0.5,0.5c-0.3,0.4-0.5,0.9-0.7,1.4c-0.3,1-0.5,2.2-0.5,3.3
				c0,2.3,0.4,4.6,1.3,6.8C578.3,44.6,579.7,46.6,581.3,48.2z"/>
		</g>
		<g>
			
				<ellipse transform="matrix(0.9259 -0.3779 0.3779 0.9259 25.9641 221.8807)" class="st5" cx="578.4" cy="44.8" rx="5.7" ry="11.7"/>
			<path d="M571.9,43.6c-0.3-1.1-0.6-2.3-0.7-3.5c-0.1-0.6-0.1-1.2,0-1.8c0-0.6,0.1-1.2,0.3-1.8c0.2-0.6,0.4-1.2,0.8-1.7
				c0.2-0.3,0.4-0.5,0.7-0.7c0.3-0.2,0.6-0.4,0.9-0.5c0.3-0.1,0.7-0.2,1-0.2c0.3,0,0.7,0,1,0c0.7,0.1,1.3,0.4,1.8,0.7
				c1.1,0.6,2,1.5,2.8,2.4c1.6,1.8,2.7,4,3.5,6.2c0.2,0.6,0.4,1.1,0.6,1.7c0.2,0.6,0.3,1.1,0.4,1.7c0.2,1.2,0.4,2.3,0.5,3.5
				c0,0.6,0,1.2,0,1.8c0,0.6-0.1,1.2-0.3,1.8c-0.2,0.6-0.4,1.2-0.7,1.7c-0.2,0.3-0.4,0.5-0.6,0.7c-0.3,0.2-0.5,0.4-0.8,0.5
				c-0.3,0.1-0.6,0.2-1,0.3c-0.3,0-0.7,0-1,0c-0.6-0.1-1.2-0.3-1.8-0.6c-0.5-0.3-1-0.7-1.5-1.1c-0.5-0.4-0.9-0.9-1.2-1.3
				c-0.8-0.9-1.4-1.9-1.9-3c-0.6-1-1.1-2.1-1.5-3.2C572.6,45.9,572.2,44.8,571.9,43.6z M577,52.7c0.8,0.8,1.7,1.5,2.7,2
				c0.5,0.3,1,0.5,1.5,0.5c0.3,0,0.5,0.1,0.8,0c0.3,0,0.5-0.1,0.7-0.2c0.2-0.1,0.5-0.2,0.7-0.4c0.2-0.2,0.4-0.3,0.6-0.5
				c0.3-0.4,0.6-0.9,0.8-1.4c0.4-1.1,0.5-2.2,0.5-3.4c0-1.2-0.2-2.3-0.5-3.4c-0.3-1.1-0.7-2.2-1.2-3.3c-0.2-0.5-0.5-1-0.8-1.6
				c-0.3-0.5-0.6-1-0.9-1.5c-0.6-1-1.3-1.9-2.1-2.7c-0.8-0.8-1.6-1.6-2.6-2.1c-0.5-0.2-1-0.4-1.5-0.5c-0.3,0-0.5,0-0.7,0
				c-0.2,0-0.5,0.1-0.7,0.2c-0.2,0.1-0.4,0.2-0.6,0.4c-0.2,0.2-0.4,0.3-0.5,0.5c-0.3,0.4-0.5,0.9-0.7,1.4c-0.3,1-0.5,2.2-0.5,3.3
				c0,2.3,0.4,4.6,1.3,6.8C574,49.1,575.4,51.1,577,52.7z"/>
		</g>
		<path d="M599.8,50.4c0-0.8,0-1.5,0.2-2.2c0.1-0.7,0.3-1.4,0.5-2.1c0.1-0.2,0.1-0.3,0.2-0.5l0.1-0.2c0-0.1,0.1-0.2,0.1-0.2
			c0.1-0.2,0.2-0.3,0.2-0.5c0.1-0.2,0.2-0.3,0.3-0.5l0.1-0.2c0-0.1,0.1-0.2,0.1-0.2l0.3-0.5c0.2-0.3,0.4-0.6,0.6-0.9
			c-0.3,0.2-0.6,0.4-0.9,0.7l-0.4,0.4c-0.1,0.1-0.1,0.1-0.2,0.2l-0.2,0.2c-0.1,0.2-0.2,0.3-0.4,0.5c-0.1,0.2-0.2,0.3-0.3,0.5
			c0,0.1-0.1,0.2-0.1,0.3l-0.1,0.3c-0.1,0.2-0.2,0.4-0.2,0.5c-0.3,0.7-0.4,1.5-0.4,2.3C599.3,48.9,599.4,49.7,599.8,50.4z"/>
		<path d="M600.1,53.9c0-0.8,0-1.5,0.2-2.2c0.1-0.7,0.3-1.4,0.5-2.1c0.1-0.2,0.1-0.3,0.2-0.5l0.1-0.2c0-0.1,0.1-0.2,0.1-0.2
			c0.1-0.2,0.2-0.3,0.2-0.5c0.1-0.2,0.2-0.3,0.3-0.5l0.1-0.2c0-0.1,0.1-0.2,0.1-0.2l0.3-0.5c0.2-0.3,0.4-0.6,0.6-0.9
			c-0.3,0.2-0.6,0.4-0.9,0.7l-0.4,0.4c-0.1,0.1-0.1,0.1-0.2,0.2l-0.2,0.2c-0.1,0.2-0.2,0.3-0.4,0.5c-0.1,0.2-0.2,0.3-0.3,0.5
			c0,0.1-0.1,0.2-0.1,0.3l-0.1,0.3c-0.1,0.2-0.2,0.4-0.2,0.5c-0.3,0.7-0.4,1.5-0.4,2.3C599.7,52.5,599.8,53.2,600.1,53.9z"/>
		<path d="M557.3,63.2c0,0-1.3,4.3-4.2,5c0,0,3.5,0.3,4.5,2.6"/>
		<g>
			
				<ellipse transform="matrix(0.995 -9.985550e-02 9.985550e-02 0.995 -3.5999 58.5269)" class="st4" cx="582.9" cy="65.2" rx="26" ry="18.4"/>
			<path d="M557.2,63.4l0.1-0.3c0-0.1,0-0.2,0.1-0.3l0.1-0.5c0.1-0.4,0.2-0.7,0.3-1.1c0.1-0.3,0.3-0.7,0.4-1l0.2-0.5l0.1-0.3
				l0.1-0.2c0.7-1.3,1.6-2.5,2.5-3.7c1-1.1,2.1-2.2,3.2-3.1c1.2-0.9,2.4-1.8,3.7-2.5l0.5-0.3l0.5-0.3l0.5-0.3
				c0.2-0.1,0.3-0.2,0.5-0.2c0.7-0.3,1.4-0.6,2.1-0.9c0.4-0.1,0.7-0.3,1.1-0.4l1.1-0.3l1.1-0.3c0.4-0.1,0.7-0.2,1.1-0.3
				c1.5-0.3,2.9-0.6,4.4-0.7c1.5-0.2,3-0.2,4.5-0.2c0.4,0,0.7,0,1.1,0l1.1,0.1l1.1,0.1c0.4,0,0.7,0.1,1.1,0.2c3,0.5,5.9,1.3,8.6,2.6
				c2.7,1.3,5.2,3.1,7.2,5.4c2,2.3,3.2,5.2,3.5,8.2c0.1,1.5,0,3-0.4,4.5c-0.4,1.5-0.9,2.8-1.7,4.1c-1.5,2.6-3.6,4.7-5.9,6.5
				c-1.2,0.9-2.4,1.7-3.7,2.4c-1.3,0.7-2.6,1.3-4,1.9c-2.8,1.1-5.7,1.8-8.6,2.1c-1.5,0.2-3,0.2-4.5,0.2c-0.4,0-0.7,0-1.1,0l-1.1-0.1
				c-0.4,0-0.7-0.1-1.1-0.1c-0.4,0-0.7-0.1-1.1-0.2c-0.7-0.1-1.5-0.3-2.2-0.4c-0.2,0-0.4-0.1-0.5-0.1l-0.5-0.1l-0.5-0.1l-0.5-0.2
				c-1.4-0.4-2.8-1-4.1-1.7c-2.7-1.4-5.1-3.2-7-5.5c-1.9-2.3-3.2-5.1-3.5-8C556.8,66.4,556.9,64.9,557.2,63.4z M560.7,75.6
				c1,1.1,2.1,2,3.3,2.8c1.2,0.8,2.5,1.5,3.8,2.1c1.3,0.6,2.7,1,4.1,1.4l0.5,0.1l0.5,0.1l0.5,0.1c0.2,0,0.4,0.1,0.5,0.1
				c0.7,0.2,1.4,0.3,2.1,0.4c2.8,0.4,5.7,0.4,8.6,0.2c1.4-0.1,2.9-0.3,4.3-0.6c1.4-0.3,2.8-0.6,4.2-1.1c1.4-0.5,2.7-1,4-1.6
				c1.3-0.7,2.5-1.4,3.7-2.3c2.3-1.7,4.4-3.9,5.8-6.4l0.1-0.2l0.1-0.2l0.2-0.5c0.2-0.3,0.3-0.7,0.4-1c0.1-0.3,0.2-0.7,0.3-1l0.1-0.5
				c0-0.1,0-0.2,0.1-0.3l0.1-0.3c0.3-1.4,0.4-2.8,0.2-4.3c-0.4-2.8-1.7-5.5-3.6-7.5c-1.9-2.1-4.3-3.7-6.9-4.9
				c-2.6-1.2-5.4-2-8.2-2.3c-2.8-0.4-5.7-0.4-8.6-0.2c-2.9,0.3-5.7,0.9-8.4,1.8c-0.7,0.2-1.3,0.5-2,0.8c-0.2,0.1-0.3,0.1-0.5,0.2
				l-0.5,0.2l-0.5,0.2l-0.5,0.2c-1.3,0.6-2.5,1.4-3.7,2.2c-1.2,0.8-2.3,1.7-3.3,2.8c-1,1-1.9,2.2-2.7,3.4c-0.8,1.2-1.3,2.6-1.7,4
				c-0.3,1.4-0.5,2.9-0.3,4.3C557.3,70.7,558.7,73.5,560.7,75.6z"/>
		</g>
		<path d="M608.2,68.6c-0.8,0.7-1.7,1.3-2.6,1.7c-0.9,0.5-1.9,0.8-2.9,1c-0.5,0.1-1,0.1-1.5,0.1c-0.5,0-1-0.1-1.5-0.3
			c-1-0.3-1.9-0.8-2.8-1.4c0.7,0.8,1.6,1.4,2.6,1.8l0.4,0.1c0.1,0,0.3,0.1,0.4,0.1c0.1,0,0.3,0.1,0.4,0.1c0.1,0,0.3,0,0.4,0.1
			c0.5,0.1,1.1,0,1.6-0.1c0.5-0.1,1.1-0.2,1.6-0.4c0.5-0.2,1-0.4,1.4-0.7C606.7,70.2,607.5,69.5,608.2,68.6z"/>
		<g>
			<g>
				
					<ellipse transform="matrix(0.995 -9.985550e-02 9.985550e-02 0.995 -3.1197 60.5084)" class="st5" cx="602.9" cy="61.4" rx="1.8" ry="2.8"/>
				<path d="M600.9,61.6c-0.2-1.7,0.6-3.1,1.7-3.2c1.1-0.1,2.2,1.1,2.3,2.8c0.2,1.7-0.6,3.1-1.7,3.2C602.1,64.6,601,63.3,600.9,61.6
					z M601.4,61.6c0.1,1.4,0.9,2.5,1.8,2.4c0.8-0.1,1.4-1.3,1.3-2.7c-0.1-1.4-0.9-2.5-1.8-2.4C601.8,59,601.2,60.2,601.4,61.6z"/>
			</g>
			<circle cx="603.3" cy="61.8" r="1.3"/>
		</g>
		<path d="M581,46.9"/>
		<path d="M578.9,47.4l10.5-0.9c0,0,3.4,7,3.3,16.9s-3.1,19.3-3.1,19.3l-10,1c0,0,1.4-6.7,0.5-19.1c-0.9-13.3-3.8-16.5-3.8-16.5
			L578.9,47.4z"/>
		<g>
			<path class="st6" d="M565.8,65.5c-0.2-7.4-2.4-11.5-2.4-11.5l-0.8,0.4c4.4-4.1,10.9-7,18.4-7.8c14.3-1.4,26.7,5.6,27.7,15.7
				s-9.7,19.5-24,20.9c-7.8,0.8-15.1-1-20.3-4.4C565.2,78.1,566,72.1,565.8,65.5z"/>
			<path d="M565.8,65.5c0.2,6.6-0.6,12.5-1.4,13.3c-4.2-2.8-7-6.7-7.5-11.3c-0.5-4.8,1.7-9.4,5.6-13.1l0.8-0.4
				C563.3,54,565.6,58.1,565.8,65.5z"/>
		</g>
	</g>
	<path class="st4" d="M70.6,149.8V113L140.8,2.5h33.4v49.1h-19.1l-37.8,60v1.4H221v36.8H70.6z M155.5,177.1v-38.5l1-16V2.5h44.3
		v174.5H155.5z"/>
	<g>
		<path d="M113.7,118.5l1.2,1.6c3.1-2.5,6.2-5.1,9.1-7.9l-1.4-1.5C119.8,113.4,116.8,116.1,113.7,118.5z"/>
		<path d="M131,102.2l1.5,1.3c2.7-2.9,5.3-6,7.8-9.2l-1.6-1.2C136.2,96.2,133.7,99.3,131,102.2z"/>
		<path d="M146.2,83.6l1.5,1.3c2.6-3.1,5.3-6.1,8-8.9l-1.4-1.4C151.5,77.4,148.8,80.5,146.2,83.6z"/>
		<path d="M205.2,43.3l0.5,1.9c3.8-1,7.7-1.8,11.6-2.3l-0.3-2C213.1,41.5,209.1,42.3,205.2,43.3z"/>
		<path d="M48.6,145.6l0.2,2c4-0.5,8-1.1,11.9-1.9l-0.4-2C56.5,144.5,52.6,145.2,48.6,145.6z"/>
		<path d="M93.8,131.6l0.9,1.8c3.5-1.9,7-4,10.4-6.2l-1.1-1.7C100.8,127.7,97.3,129.7,93.8,131.6z"/>
		<path d="M33.5,146.5c-2.9,0-5.8-0.1-8.6-0.3l-0.1,2c2.9,0.2,5.8,0.3,8.8,0.3c1.1,0,2.2,0,3.3,0l0-2
			C35.6,146.5,34.6,146.5,33.5,146.5z"/>
		<path d="M0.8,144.3c0.2,0.1,4.5,1.4,11.9,2.6l0.3-2c-7.2-1.1-11.5-2.5-11.6-2.5L0.8,144.3z"/>
		<path d="M71.9,140.7l0.6,1.9c3.8-1.2,7.7-2.6,11.4-4.1l-0.8-1.8C79.5,138.2,75.7,139.6,71.9,140.7z"/>
		<path d="M229.1,40.2l0.1,2c3.9,0,7.9,0.3,11.8,0.8l0.3-2C237.2,40.4,233.2,40.2,229.1,40.2L229.1,40.2z"/>
		<path d="M310.2,84.8c2.8,3.4,5.4,6.4,7.9,9.1l1.5-1.4c-2.5-2.7-5-5.6-7.9-9L310.2,84.8z"/>
		<path d="M415.3,108.9l0.9,1.8c3.4-1.8,6.9-3.8,10.5-6l-1-1.7C422.2,105.2,418.7,107.2,415.3,108.9z"/>
		<path d="M436.1,96.9l1,1.7c3.5-2,7-3.9,10.5-5.6l-0.9-1.8C443.1,93,439.5,94.9,436.1,96.9z"/>
		<path d="M393.3,117.9l0.5,1.9c3.7-1,7.5-2.4,11.4-4l-0.8-1.8C400.7,115.5,397,116.8,393.3,117.9z"/>
		<path d="M457.6,86l0.8,1.8c3.6-1.6,7.3-3.1,11-4.5l-0.7-1.9C465,82.9,461.2,84.4,457.6,86z"/>
		<path d="M539.3,67c-3.9,0.1-7.9,0.3-12.1,0.7l0.2,2c4.1-0.4,8.1-0.6,11.9-0.7L539.3,67z"/>
		<path d="M326.7,102.5c1.7,1.6,3.5,3.1,5.2,4.5c0.1-0.8,0.2-1.6,0.2-2.4c-1.4-1.1-2.7-2.3-4.1-3.6L326.7,102.5z"/>
		<path d="M274.8,53.7c3.5,1.8,6.9,3.9,10.2,6.1l1.1-1.7c-3.3-2.3-6.8-4.4-10.4-6.2L274.8,53.7z"/>
		<path d="M295.6,65.6l-1.3,1.5c3,2.7,5.8,5.5,8.3,8.4l1.5-1.3C301.6,71.3,298.8,68.4,295.6,65.6z"/>
		<path d="M378.7,120.6c-0.2,0.7-0.3,1.4-0.5,2c1.3-0.1,2.5-0.2,3.8-0.4l-0.2-2C380.7,120.4,379.7,120.5,378.7,120.6z"/>
		<path d="M252.6,45.1c3.8,1,7.6,2.2,11.3,3.6l0.7-1.9c-3.8-1.5-7.7-2.7-11.5-3.7L252.6,45.1z"/>
	</g>
</g>
</svg>
