<?xml version="1.0" encoding="utf-8"?>
<!-- Generator: Adobe Illustrator 28.0.0, SVG Export Plug-In . SVG Version: 6.00 Build 0)  -->
<svg version="1.1" id="Warstwa_1" xmlns="http://www.w3.org/2000/svg" xmlns:xlink="http://www.w3.org/1999/xlink" x="0px" y="0px"
	 viewBox="0 0 810 230" style="enable-background:new 0 0 810 230;" xml:space="preserve">
<style type="text/css">
	.st0{fill:#FAB90F;}
	.st1{fill:#FFFFFF;}
	.st2{fill:none;}
</style>
<g>
	<path class="st0" d="M212.3,93c0,19.4-3.8,35.8-11.3,49.1c-7.6,13.3-17.8,23.4-30.6,30.3c-12.8,6.8-27.2,10.3-43,10.3
		c-15.9,0-30.3-3.5-43.1-10.4c-12.8-6.9-23-17-30.5-30.3c-7.5-13.3-11.3-29.6-11.3-49c0-19.4,3.8-35.8,11.3-49.1
		c7.5-13.3,17.7-23.4,30.5-30.3c12.8-6.8,27.2-10.3,43.1-10.3c15.8,0,30.1,3.4,43,10.3c12.8,6.8,23,16.9,30.6,30.3
		C208.5,57.2,212.3,73.6,212.3,93z M163.5,93c0-10.5-1.4-19.3-4.1-26.5c-2.8-7.2-6.8-12.6-12.2-16.4c-5.4-3.7-12-5.6-19.8-5.6
		s-14.4,1.9-19.8,5.6c-5.4,3.7-9.4,9.2-12.2,16.4c-2.8,7.2-4.1,16-4.1,26.5c0,10.5,1.4,19.3,4.1,26.5c2.8,7.2,6.8,12.6,12.2,16.4
		c5.4,3.7,12,5.6,19.8,5.6s14.4-1.9,19.8-5.6c5.4-3.7,9.4-9.2,12.2-16.4C162.2,112.3,163.5,103.4,163.5,93z"/>
	<path class="st0" d="M285.9,182.6c-14.2,0-26.4-2.8-36.5-8.5c-10.1-5.7-17.9-13.6-23.3-23.7c-5.4-10.1-8.1-21.9-8.1-35.3
		c0-13.4,2.7-25.2,8.1-35.3c5.4-10.1,13.2-18,23.3-23.7c10.1-5.7,22.3-8.5,36.5-8.5c14.2,0,26.4,2.8,36.5,8.5
		c10.1,5.7,17.9,13.6,23.3,23.7c5.4,10.1,8.1,21.9,8.1,35.3c0,13.4-2.7,25.2-8.1,35.3c-5.4,10.1-13.2,18-23.3,23.7
		C312.2,179.8,300.1,182.6,285.9,182.6z M286.2,147.9c4,0,7.4-1.3,10.3-4c2.9-2.7,5.1-6.5,6.7-11.4c1.6-4.9,2.4-10.8,2.4-17.6
		c0-6.9-0.8-12.8-2.4-17.7c-1.6-4.9-3.8-8.7-6.7-11.4c-2.9-2.7-6.3-4-10.3-4c-4.2,0-7.8,1.3-10.8,4c-3,2.7-5.3,6.5-6.9,11.4
		c-1.6,4.9-2.4,10.8-2.4,17.7c0,6.8,0.8,12.7,2.4,17.6c1.6,4.9,3.9,8.8,6.9,11.4C278.4,146.5,282,147.9,286.2,147.9z"/>
	<path class="st0" d="M360.8,229.3v-180h46.7v22.8h1c1.7-4.4,4.2-8.5,7.5-12.2c3.3-3.7,7.4-6.7,12.3-8.9c4.9-2.2,10.6-3.4,17-3.4
		c8.6,0,16.9,2.3,24.7,6.9c7.8,4.6,14.2,11.8,19.1,21.7c4.9,9.9,7.4,22.7,7.4,38.5c0,15.1-2.3,27.6-7,37.6
		c-4.7,9.9-10.9,17.4-18.8,22.2c-7.8,4.9-16.4,7.3-25.7,7.3c-6.1,0-11.6-1-16.4-3c-4.8-2-8.9-4.8-12.3-8.3c-3.4-3.5-6-7.5-7.8-11.9
		h-0.7v70.6H360.8z M406.8,114.8c0,6.4,0.8,11.9,2.5,16.5c1.7,4.6,4.1,8.2,7.2,10.7c3.1,2.5,6.8,3.8,11.1,3.8c4.3,0,8-1.2,11-3.7
		c3-2.5,5.4-6,7-10.7c1.6-4.6,2.4-10.2,2.4-16.7c0-6.5-0.8-12-2.4-16.7c-1.6-4.6-3.9-8.2-7-10.7c-3-2.5-6.7-3.7-11-3.7
		c-4.3,0-8,1.2-11.1,3.7c-3.1,2.5-5.5,6-7.2,10.7C407.6,102.8,406.8,108.3,406.8,114.8z"/>
	<path class="st0" d="M658.9,183c-6.6,0-12.2-2.3-16.9-6.9c-4.7-4.6-7-10.3-6.9-16.9c-0.1-6.5,2.3-12,6.9-16.6s10.3-6.9,16.9-6.9
		c6.2,0,11.8,2.3,16.6,6.9c4.8,4.6,7.2,10.1,7.3,16.6c-0.1,4.4-1.2,8.5-3.5,12.1c-2.2,3.6-5.2,6.5-8.7,8.6
		C667,181.9,663.1,183,658.9,183z"/>
	<path class="st0" d="M721.9,183c-6.6,0-12.2-2.3-16.9-6.9c-4.7-4.6-7-10.3-6.9-16.9c-0.1-6.5,2.3-12,6.9-16.6s10.3-6.9,16.9-6.9
		c6.2,0,11.8,2.3,16.6,6.9c4.8,4.6,7.2,10.1,7.3,16.6c-0.1,4.4-1.2,8.5-3.5,12.1c-2.2,3.6-5.2,6.5-8.7,8.6
		C730,181.9,726.1,183,721.9,183z"/>
	<path class="st0" d="M784.9,183c-6.6,0-12.2-2.3-16.9-6.9c-4.7-4.6-7-10.3-6.9-16.9c-0.1-6.5,2.3-12,6.9-16.6s10.3-6.9,16.9-6.9
		c6.2,0,11.8,2.3,16.6,6.9c4.8,4.6,7.2,10.1,7.3,16.6c-0.1,4.4-1.2,8.5-3.5,12.1c-2.2,3.6-5.2,6.5-8.7,8.6
		C793,181.9,789.1,183,784.9,183z"/>
</g>
<g>
	<g>
		<ellipse transform="matrix(0.9259 -0.3779 0.3779 0.9259 41.4624 295.3476)" class="st1" cx="773.4" cy="42" rx="5.7" ry="11.7"/>
		<path d="M766.9,40.9c-0.3-1.1-0.6-2.3-0.7-3.5c-0.1-0.6-0.1-1.2,0-1.8c0-0.6,0.1-1.2,0.3-1.8c0.2-0.6,0.4-1.2,0.8-1.7
			c0.2-0.3,0.4-0.5,0.7-0.7c0.3-0.2,0.6-0.4,0.9-0.5c0.3-0.1,0.7-0.2,1-0.2c0.3,0,0.7,0,1,0c0.7,0.1,1.3,0.4,1.8,0.7
			c1.1,0.6,2,1.5,2.8,2.4c1.6,1.8,2.7,4,3.5,6.2c0.2,0.6,0.4,1.1,0.6,1.7c0.2,0.6,0.3,1.1,0.4,1.7c0.2,1.2,0.4,2.3,0.5,3.5
			c0,0.6,0,1.2,0,1.8c0,0.6-0.1,1.2-0.3,1.8c-0.2,0.6-0.4,1.2-0.7,1.7c-0.2,0.3-0.4,0.5-0.6,0.7c-0.3,0.2-0.5,0.4-0.8,0.5
			c-0.3,0.1-0.6,0.2-1,0.3c-0.3,0-0.7,0-1,0c-0.6-0.1-1.2-0.3-1.8-0.6c-0.5-0.3-1-0.7-1.5-1.1c-0.5-0.4-0.9-0.9-1.2-1.3
			c-0.8-0.9-1.4-1.9-1.9-3c-0.6-1-1.1-2.1-1.5-3.2C767.6,43.1,767.2,42,766.9,40.9z M772,49.9c0.8,0.8,1.7,1.5,2.7,2
			c0.5,0.3,1,0.5,1.5,0.5c0.3,0,0.5,0.1,0.8,0c0.3,0,0.5-0.1,0.7-0.2c0.2-0.1,0.5-0.2,0.7-0.4c0.2-0.2,0.4-0.3,0.6-0.5
			c0.3-0.4,0.6-0.9,0.8-1.4c0.4-1.1,0.5-2.2,0.5-3.4c0-1.2-0.2-2.3-0.5-3.4c-0.3-1.1-0.7-2.2-1.2-3.3c-0.2-0.5-0.5-1-0.8-1.6
			c-0.3-0.5-0.6-1-0.9-1.5c-0.6-1-1.3-1.9-2.1-2.7c-0.8-0.8-1.6-1.6-2.6-2.1c-0.5-0.2-1-0.4-1.5-0.5c-0.3,0-0.5,0-0.7,0
			c-0.2,0-0.5,0.1-0.7,0.2c-0.2,0.1-0.4,0.2-0.6,0.4c-0.2,0.2-0.4,0.3-0.5,0.5c-0.3,0.4-0.5,0.9-0.7,1.4c-0.3,1-0.5,2.2-0.5,3.3
			c0,2.3,0.4,4.6,1.3,6.8C769,46.3,770.3,48.3,772,49.9z"/>
	</g>
	<g>
		
			<ellipse transform="matrix(0.9259 -0.3779 0.3779 0.9259 39.4417 294.0569)" class="st1" cx="769.1" cy="46.5" rx="5.7" ry="11.7"/>
		<path d="M762.6,45.4c-0.3-1.1-0.6-2.3-0.7-3.5c-0.1-0.6-0.1-1.2,0-1.8c0-0.6,0.1-1.2,0.3-1.8c0.2-0.6,0.4-1.2,0.8-1.7
			c0.2-0.3,0.4-0.5,0.7-0.7c0.3-0.2,0.6-0.4,0.9-0.5c0.3-0.1,0.7-0.2,1-0.2c0.3,0,0.7,0,1,0c0.7,0.1,1.3,0.4,1.8,0.7
			c1.1,0.6,2,1.5,2.8,2.4c1.6,1.8,2.7,4,3.5,6.2c0.2,0.6,0.4,1.1,0.6,1.7c0.2,0.6,0.3,1.1,0.4,1.7c0.2,1.2,0.4,2.3,0.5,3.5
			c0,0.6,0,1.2,0,1.8c0,0.6-0.1,1.2-0.3,1.8c-0.2,0.6-0.4,1.2-0.7,1.7c-0.2,0.3-0.4,0.5-0.6,0.7c-0.3,0.2-0.5,0.4-0.8,0.5
			c-0.3,0.1-0.6,0.2-1,0.3c-0.3,0-0.7,0-1,0c-0.6-0.1-1.2-0.3-1.8-0.6c-0.5-0.3-1-0.7-1.5-1.1c-0.5-0.4-0.9-0.9-1.2-1.3
			c-0.8-0.9-1.4-1.9-1.9-3c-0.6-1-1.1-2.1-1.5-3.2C763.3,47.6,762.9,46.5,762.6,45.4z M767.7,54.4c0.8,0.8,1.7,1.5,2.7,2
			c0.5,0.3,1,0.5,1.5,0.5c0.3,0,0.5,0.1,0.8,0c0.3,0,0.5-0.1,0.7-0.2c0.2-0.1,0.5-0.2,0.7-0.4c0.2-0.2,0.4-0.3,0.6-0.5
			c0.3-0.4,0.6-0.9,0.8-1.4c0.4-1.1,0.5-2.2,0.5-3.4c0-1.2-0.2-2.3-0.5-3.4c-0.3-1.1-0.7-2.2-1.2-3.3c-0.2-0.5-0.5-1-0.8-1.6
			c-0.3-0.5-0.6-1-0.9-1.5c-0.6-1-1.3-1.9-2.1-2.7c-0.8-0.8-1.6-1.6-2.6-2.1c-0.5-0.2-1-0.4-1.5-0.5c-0.3,0-0.5,0-0.7,0
			c-0.2,0-0.5,0.1-0.7,0.2c-0.2,0.1-0.4,0.2-0.6,0.4c-0.2,0.2-0.4,0.3-0.5,0.5c-0.3,0.4-0.5,0.9-0.7,1.4c-0.3,1-0.5,2.2-0.5,3.3
			c0,2.3,0.4,4.6,1.3,6.8C764.7,50.8,766,52.8,767.7,54.4z"/>
	</g>
	<path d="M790.4,52.1c0-0.8,0-1.5,0.2-2.2c0.1-0.7,0.3-1.4,0.5-2.1c0.1-0.2,0.1-0.3,0.2-0.5l0.1-0.2c0-0.1,0.1-0.2,0.1-0.2
		c0.1-0.2,0.2-0.3,0.2-0.5c0.1-0.2,0.2-0.3,0.3-0.5l0.1-0.2c0-0.1,0.1-0.2,0.1-0.2l0.3-0.5c0.2-0.3,0.4-0.6,0.6-0.9
		c-0.3,0.2-0.6,0.4-0.9,0.7l-0.4,0.4c-0.1,0.1-0.1,0.1-0.2,0.2l-0.2,0.2c-0.1,0.2-0.2,0.3-0.4,0.5c-0.1,0.2-0.2,0.3-0.3,0.5
		c0,0.1-0.1,0.2-0.1,0.3l-0.1,0.3c-0.1,0.2-0.2,0.4-0.2,0.5c-0.3,0.7-0.4,1.5-0.4,2.3C790,50.7,790.1,51.4,790.4,52.1z"/>
	<path d="M790.8,55.7c0-0.8,0-1.5,0.2-2.2c0.1-0.7,0.3-1.4,0.5-2.1c0.1-0.2,0.1-0.3,0.2-0.5l0.1-0.2c0-0.1,0.1-0.2,0.1-0.2
		c0.1-0.2,0.2-0.3,0.2-0.5c0.1-0.2,0.2-0.3,0.3-0.5l0.1-0.2c0-0.1,0.1-0.2,0.1-0.2l0.3-0.5c0.2-0.3,0.4-0.6,0.6-0.9
		c-0.3,0.2-0.6,0.4-0.9,0.7l-0.4,0.4c-0.1,0.1-0.1,0.1-0.2,0.2l-0.2,0.2c-0.1,0.2-0.2,0.3-0.4,0.5c-0.1,0.2-0.2,0.3-0.3,0.5
		c0,0.1-0.1,0.2-0.1,0.3l-0.1,0.3c-0.1,0.2-0.2,0.4-0.2,0.5c-0.3,0.7-0.4,1.5-0.4,2.3C790.4,54.2,790.5,55,790.8,55.7z"/>
	<path d="M748,64.9c0,0-1.3,4.3-4.2,5c0,0,3.5,0.3,4.5,2.6"/>
	<g>
		
			<ellipse transform="matrix(0.995 -9.985550e-02 9.985550e-02 0.995 -2.8208 77.5754)" class="st0" cx="773.5" cy="67" rx="26" ry="18.4"/>
		<path d="M747.8,65.2l0.1-0.3c0-0.1,0-0.2,0.1-0.3l0.1-0.5c0.1-0.4,0.2-0.7,0.3-1.1c0.1-0.3,0.3-0.7,0.4-1l0.2-0.5l0.1-0.3l0.1-0.2
			c0.7-1.3,1.6-2.5,2.5-3.7c1-1.1,2.1-2.2,3.2-3.1c1.2-0.9,2.4-1.8,3.7-2.5l0.5-0.3l0.5-0.3l0.5-0.3c0.2-0.1,0.3-0.2,0.5-0.2
			c0.7-0.3,1.4-0.6,2.1-0.9c0.4-0.1,0.7-0.3,1.1-0.4l1.1-0.3l1.1-0.3c0.4-0.1,0.7-0.2,1.1-0.3c1.5-0.3,2.9-0.6,4.4-0.7
			c1.5-0.2,3-0.2,4.5-0.2c0.4,0,0.7,0,1.1,0l1.1,0.1l1.1,0.1c0.4,0,0.7,0.1,1.1,0.2c3,0.5,5.9,1.3,8.6,2.6c2.7,1.3,5.2,3.1,7.2,5.4
			c2,2.3,3.2,5.2,3.5,8.2c0.1,1.5,0,3-0.4,4.5c-0.4,1.5-0.9,2.8-1.7,4.1c-1.5,2.6-3.6,4.7-5.9,6.5c-1.2,0.9-2.4,1.7-3.7,2.4
			c-1.3,0.7-2.6,1.3-4,1.9c-2.8,1.1-5.7,1.8-8.6,2.1c-1.5,0.2-3,0.2-4.5,0.2c-0.4,0-0.7,0-1.1,0l-1.1-0.1c-0.4,0-0.7-0.1-1.1-0.1
			c-0.4,0-0.7-0.1-1.1-0.2c-0.7-0.1-1.5-0.3-2.2-0.4c-0.2,0-0.4-0.1-0.5-0.1l-0.5-0.1l-0.5-0.1l-0.5-0.2c-1.4-0.4-2.8-1-4.1-1.7
			c-2.7-1.4-5.1-3.2-7-5.5c-1.9-2.3-3.2-5.1-3.5-8C747.4,68.1,747.5,66.6,747.8,65.2z M751.3,77.3c1,1.1,2.1,2,3.3,2.8
			c1.2,0.8,2.5,1.5,3.8,2.1c1.3,0.6,2.7,1,4.1,1.4l0.5,0.1l0.5,0.1L764,84c0.2,0,0.4,0.1,0.5,0.1c0.7,0.2,1.4,0.3,2.1,0.4
			c2.8,0.4,5.7,0.4,8.6,0.2c1.4-0.1,2.9-0.3,4.3-0.6c1.4-0.3,2.8-0.6,4.2-1.1c1.4-0.5,2.7-1,4-1.6c1.3-0.7,2.5-1.4,3.7-2.3
			c2.3-1.7,4.4-3.9,5.8-6.4l0.1-0.2l0.1-0.2l0.2-0.5c0.2-0.3,0.3-0.7,0.4-1c0.1-0.3,0.2-0.7,0.3-1l0.1-0.5c0-0.1,0-0.2,0.1-0.3
			l0.1-0.3c0.3-1.4,0.4-2.8,0.2-4.3c-0.4-2.8-1.7-5.5-3.6-7.5c-1.9-2.1-4.3-3.7-6.9-4.9c-2.6-1.2-5.4-2-8.2-2.3
			c-2.8-0.4-5.7-0.4-8.6-0.2c-2.9,0.3-5.7,0.9-8.4,1.8c-0.7,0.2-1.3,0.5-2,0.8c-0.2,0.1-0.3,0.1-0.5,0.2l-0.5,0.2l-0.5,0.2l-0.5,0.2
			c-1.3,0.6-2.5,1.4-3.7,2.2c-1.2,0.8-2.3,1.7-3.3,2.8c-1,1-1.9,2.2-2.7,3.4c-0.8,1.2-1.3,2.6-1.7,4c-0.3,1.4-0.5,2.9-0.3,4.3
			C748,72.5,749.4,75.2,751.3,77.3z"/>
	</g>
	<path d="M798.9,70.4c-0.8,0.7-1.7,1.3-2.6,1.7c-0.9,0.5-1.9,0.8-2.9,1c-0.5,0.1-1,0.1-1.5,0.1c-0.5,0-1-0.1-1.5-0.3
		c-1-0.3-1.9-0.8-2.8-1.4c0.7,0.8,1.6,1.4,2.6,1.8l0.4,0.1c0.1,0,0.3,0.1,0.4,0.1c0.1,0,0.3,0.1,0.4,0.1c0.1,0,0.3,0,0.4,0.1
		c0.5,0.1,1.1,0,1.6-0.1c0.5-0.1,1.1-0.2,1.6-0.4c0.5-0.2,1-0.4,1.4-0.7C797.4,71.9,798.2,71.2,798.9,70.4z"/>
	<g>
		<g>
			
				<ellipse transform="matrix(0.995 -9.985550e-02 9.985550e-02 0.995 -2.3406 79.5568)" class="st1" cx="793.6" cy="63.2" rx="1.8" ry="2.8"/>
			<path d="M791.5,63.4c-0.2-1.7,0.6-3.1,1.7-3.2c1.1-0.1,2.2,1.1,2.3,2.8c0.2,1.7-0.6,3.1-1.7,3.2
				C792.7,66.3,791.7,65.1,791.5,63.4z M792,63.3c0.1,1.4,0.9,2.5,1.8,2.4c0.8-0.1,1.4-1.3,1.3-2.7c-0.1-1.4-0.9-2.5-1.8-2.4
				C792.5,60.7,791.9,61.9,792,63.3z"/>
		</g>
		<circle cx="794" cy="63.5" r="1.3"/>
	</g>
	<path d="M771.7,48.7"/>
	<path d="M769.6,49.1l10.5-0.9c0,0,3.4,7,3.3,16.9s-3.1,19.3-3.1,19.3l-10,1c0,0,1.4-6.7,0.5-19.1c-0.9-13.3-3.8-16.5-3.8-16.5
		L769.6,49.1z"/>
	<g>
		<path class="st2" d="M756.4,67.3c-0.2-7.4-2.4-11.5-2.4-11.5l-0.8,0.4c4.4-4.1,10.9-7,18.4-7.8c14.3-1.4,26.7,5.6,27.7,15.7
			c1,10.1-9.7,19.5-24,20.9c-7.8,0.8-15.1-1-20.3-4.4C755.9,79.8,756.6,73.9,756.4,67.3z"/>
		<path d="M756.4,67.3c0.2,6.6-0.6,12.5-1.4,13.3c-4.2-2.8-7-6.7-7.5-11.3c-0.5-4.8,1.7-9.4,5.6-13.1l0.8-0.4
			C754,55.8,756.2,59.8,756.4,67.3z"/>
	</g>
</g>
<g>
	<path d="M160.4,78.8c3.2,0.9,6.4,1.9,9.5,3l0.7-1.9c-3.1-1.1-6.4-2.1-9.6-3L160.4,78.8z"/>
	<path d="M215.3,102c3.3,1.5,6.3,2.8,9.2,4l0.8-1.8c-2.9-1.2-5.9-2.5-9.1-4L215.3,102z"/>
	<path d="M353.7,117.6c0,0.7,0,1.4-0.1,2c2.9-0.5,5.9-1,9-1.6l-0.4-2C359.3,116.7,356.5,117.2,353.7,117.6z"/>
	<path d="M179.2,85.3c2.9,1.2,5.9,2.5,9.1,3.9l0.8-1.8c-3.2-1.5-6.3-2.7-9.2-3.9L179.2,85.3z"/>
	<path d="M292.6,121.9c3.4,0.3,6.7,0.5,10,0.7l0.1-2c-3.3-0.2-6.6-0.4-9.9-0.7L292.6,121.9z"/>
	<path d="M233.9,109.7c3.1,1.1,6.4,2.2,9.5,3.1l0.6-1.9c-3.1-0.9-6.3-2-9.4-3.1L233.9,109.7z"/>
	<path d="M272.7,119.5c3.2,0.5,6.6,1,9.9,1.4l0.2-2c-3.3-0.4-6.7-0.9-9.9-1.4L272.7,119.5z"/>
	<path d="M253.1,115.5c3.2,0.8,6.5,1.5,9.8,2.2l0.4-2c-3.3-0.7-6.6-1.4-9.7-2.2L253.1,115.5z"/>
	<path d="M198.2,91.6l-0.9,1.8c1.9,0.9,3.7,1.8,5.6,2.7l3.4,1.7l0.9-1.8l-3.4-1.7C201.9,93.4,200.1,92.5,198.2,91.6z"/>
	<path d="M14.5,119.2l1.4,1.5c2.4-2.3,4.9-4.5,7.4-6.7l-1.3-1.5C19.4,114.7,16.9,116.9,14.5,119.2z"/>
	<path d="M0.4,133.7L2,135c0,0,2.4-2.9,6.8-7.3l-1.4-1.4C2.9,130.8,0.5,133.7,0.4,133.7z"/>
	<path d="M431.1,107.5c2.7,0.3,5.8,0.7,9.9,1.3l0.3-2c-4.1-0.6-7.2-1-9.9-1.3L431.1,107.5z"/>
	<path d="M29.7,106.1l1.2,1.6c2.6-2.1,5.3-4.1,7.9-6l-1.2-1.6C35,101.9,32.3,104,29.7,106.1z"/>
	<path d="M141,74.2c3.3,0.6,6.6,1.3,9.7,2l0.5-1.9c-3.2-0.7-6.5-1.4-9.8-2.1L141,74.2z"/>
	<path d="M121.4,71.7c3.3,0.1,6.6,0.4,9.8,0.9l0.3-2c-3.3-0.5-6.7-0.8-10.1-0.9L121.4,71.7z"/>
	<path d="M101.3,71.1l0.3,2c3.3-0.6,6.6-1,9.8-1.2l-0.1-2C108.1,70.2,104.7,70.6,101.3,71.1z"/>
	<path d="M629.9,101.9l0.4,2c3.2-0.6,6.5-1.3,9.8-2.1l-0.4-2C636.4,100.5,633.1,101.2,629.9,101.9z"/>
	<path d="M649.4,97.6l0.5,1.9c3.2-0.8,6.5-1.6,9.7-2.4l-0.5-1.9C655.9,96.1,652.6,96.9,649.4,97.6z"/>
	<path d="M668.8,92.8l0.5,1.9c3.2-0.9,6.4-1.7,9.7-2.7l-0.5-1.9C675.2,91,672,91.9,668.8,92.8z"/>
	<path d="M610.3,105.5l0.3,2c3.3-0.6,6.6-1.1,9.9-1.7l-0.4-2C616.9,104.4,613.6,104.9,610.3,105.5z"/>
	<path d="M707,81.3l0.6,1.9c3.1-1,6.3-2.1,9.5-3.2l-0.7-1.9C713.3,79.3,710.2,80.3,707,81.3z"/>
	<path d="M735.3,71.4c-3.1,1.2-6.3,2.3-9.4,3.4l0.7,1.9c3.1-1.1,6.2-2.3,9.4-3.4L735.3,71.4z"/>
	<path d="M590.5,108.4l0.3,2c3.3-0.4,6.6-0.9,9.9-1.4l-0.3-2C597.1,107.5,593.8,108,590.5,108.4z"/>
	<path d="M688,87.3l0.6,1.9c3.2-0.9,6.4-1.9,9.6-2.9l-0.6-1.9C694.4,85.4,691.2,86.4,688,87.3z"/>
	<path d="M550.8,112.2l0.1,2c3.3-0.2,6.7-0.4,10-0.7l-0.2-2C557.4,111.8,554.1,112,550.8,112.2z"/>
	<path d="M421.2,105.1c-3.2,0.1-6.5,0.4-10.1,0.8l0.3,2c3.5-0.5,6.8-0.7,9.9-0.8L421.2,105.1z"/>
	<path d="M391.5,109.7l0.4,2c3.9-0.9,7-1.5,9.7-2.1l-0.4-2C398.5,108.1,395.3,108.8,391.5,109.7z"/>
	<path d="M496.5,114.4c1.5,0.1,2.9,0.1,4.4,0.2l0.1-2c-1.5-0.1-3-0.1-4.5-0.2C496.5,113.1,496.5,113.7,496.5,114.4z"/>
	<path d="M570.7,110.7l0.2,2c3.3-0.3,6.7-0.7,10-1l-0.2-2C577.3,110,574,110.4,570.7,110.7z"/>
	<path d="M510.8,114.9c3.3,0.1,6.7,0.1,10,0.1l0-2c-3.3,0-6.7,0-10-0.1L510.8,114.9z"/>
	<path d="M372,114.1l0.4,2c3.4-0.7,6.6-1.5,9.8-2.2l-0.4-1.9C378.6,112.6,375.3,113.4,372,114.1z"/>
	<path d="M530.8,113l0,2c3.3-0.1,6.7-0.2,10-0.3l-0.1-2C537.5,112.8,534.2,112.9,530.8,113z"/>
</g>
<path class="st0" d="M623.9,92h-43.3c-0.2-2.7-1.2-5-2.8-6.9c-1.6-1.9-3.8-3.4-6.3-4.5c-2.6-1.1-5.4-1.6-8.6-1.6
	c-4,0-7.5,0.7-10.4,2.2c-2.9,1.5-4.3,3.6-4.3,6.3c-0.1,1.9,0.8,3.7,2.5,5.4c1.7,1.6,5.1,2.9,10.1,3.8l26.6,4.8
	c13.4,2.4,23.4,6.5,30,12.3c6.6,5.8,9.9,13.5,9.9,23.1c-0.1,9.3-2.8,17.4-8.3,24.2c-5.5,6.8-13,12.1-22.4,15.9s-20.2,5.6-32.3,5.6
	c-20,0-35.6-4.1-46.9-12.3c-11.3-8.2-17.6-19-18.9-32.4h46.7c0.6,4.1,2.7,7.3,6.2,9.6c3.5,2.2,7.9,3.4,13.3,3.4
	c4.3,0,7.9-0.7,10.7-2.2c2.8-1.5,4.2-3.6,4.3-6.3c-0.1-2.5-1.3-4.5-3.7-6c-2.4-1.5-6.2-2.7-11.3-3.6l-23.2-4.1
	c-13.4-2.3-23.4-6.8-30-13.3c-6.6-6.5-9.9-14.9-9.9-25.2c-0.1-9.1,2.3-16.8,7.2-23.1c4.9-6.3,11.8-11.2,20.9-14.5
	c9.1-3.3,19.8-5,32.3-5c18.9,0,33.8,3.9,44.8,11.8C617.6,67.2,623.3,78.1,623.9,92z"/>
</svg>
