<?xml version="1.0" encoding="UTF-8"?><svg id="d" xmlns="http://www.w3.org/2000/svg" viewBox="0 0 453.54 453.54"><path d="M244.03,182.3h-34.02l-17.01-29.46,17.01-29.46h34.02l17.01,29.46-17.01,29.46ZM213.16,176.85h27.73l13.86-24.01-13.86-24.01h-27.73l-13.86,24.01,13.86,24.01Z" style="fill:#000; stroke-width:0px;"/><path d="M244.03,248.02h-34.02l-17.01-29.46,17.01-29.46h34.02l17.01,29.46-17.01,29.46ZM213.16,242.57h27.73l13.86-24.01-13.86-24.01h-27.73l-13.86,24.01,13.86,24.01Z" style="fill:#000; stroke-width:0px;"/><polygon points="299.87 156.24 265.85 156.24 248.84 185.7 265.85 215.16 299.87 215.16 316.87 185.7 299.87 156.24" style="fill:#000; stroke-width:0px;"/><polygon points="187.69 156.24 153.68 156.24 136.67 185.7 153.68 215.16 187.69 215.16 204.7 185.7 187.69 156.24" style="fill:#000; stroke-width:0px;"/><path d="M113.34,318.04v-43.38h7.86v21.54l-1.32,6.96,1.26,7.08v7.8h-7.8ZM129.42,318.64c-2.08,0-3.96-.44-5.64-1.32s-3.02-2.08-4.02-3.6c-1-1.52-1.54-3.22-1.62-5.1v-10.32c.08-1.88.63-3.57,1.65-5.07,1.02-1.5,2.37-2.67,4.05-3.51,1.68-.84,3.54-1.26,5.58-1.26,2.68,0,5.08.66,7.2,1.98,2.12,1.32,3.79,3.12,5.01,5.4,1.22,2.28,1.83,4.86,1.83,7.74s-.61,5.4-1.83,7.68c-1.22,2.28-2.89,4.08-5.01,5.4-2.12,1.32-4.52,1.98-7.2,1.98ZM128.1,311.38c1.44,0,2.71-.33,3.81-.99,1.1-.66,1.96-1.58,2.58-2.76.62-1.18.93-2.55.93-4.11s-.31-2.87-.93-4.05c-.62-1.18-1.49-2.1-2.61-2.76s-2.4-.99-3.84-.99-2.71.33-3.81.99c-1.1.66-1.96,1.58-2.58,2.76-.62,1.18-.93,2.53-.93,4.05s.31,2.93.93,4.11c.62,1.18,1.49,2.1,2.61,2.76,1.12.66,2.4.99,3.84.99Z" style="fill:#000; stroke-width:0px;"/><path d="M156.9,318.28l-12.12-29.22h8.52l8.04,22.32h-2.88l8.34-22.32h8.58l-12.9,29.22h-5.58ZM148.86,330.16l8.82-18.66,4.8,6.78-5.28,11.88h-8.34Z" style="fill:#000; stroke-width:0px;"/><path d="M176.64,295.96v-6.9h21.42v6.9h-21.42ZM183.42,318.04v-41.04h7.86v41.04h-7.86Z" style="fill:#000; stroke-width:0px;"/><path d="M215.94,318.64c-3.04,0-5.74-.65-8.1-1.95-2.36-1.3-4.23-3.09-5.61-5.37-1.38-2.28-2.07-4.88-2.07-7.8s.67-5.45,2.01-7.71c1.34-2.26,3.17-4.06,5.49-5.4,2.32-1.34,4.9-2.01,7.74-2.01s5.27.63,7.41,1.89c2.14,1.26,3.82,2.98,5.04,5.16,1.22,2.18,1.83,4.65,1.83,7.41,0,.52-.03,1.05-.09,1.59-.06.54-.17,1.15-.33,1.83l-24.36.06v-5.88l20.7-.06-3.18,2.46c-.08-1.72-.39-3.16-.93-4.32-.54-1.16-1.32-2.05-2.34-2.67-1.02-.62-2.27-.93-3.75-.93-1.56,0-2.92.35-4.08,1.05-1.16.7-2.05,1.68-2.67,2.94-.62,1.26-.93,2.75-.93,4.47s.33,3.29.99,4.59c.66,1.3,1.61,2.3,2.85,3,1.24.7,2.68,1.05,4.32,1.05,1.48,0,2.82-.25,4.02-.75,1.2-.5,2.24-1.25,3.12-2.25l4.62,4.62c-1.4,1.64-3.11,2.88-5.13,3.72-2.02.84-4.21,1.26-6.57,1.26Z" style="fill:#000; stroke-width:0px;"/><path d="M241.62,318.04l-10.86-28.98h7.92l7.08,21.06-2.4.06,7.26-21.12h5.7l7.26,21.12-2.4-.06,7.08-21.06h7.92l-10.8,28.98h-5.7l-7.32-20.04h2.22l-7.32,20.04h-5.64Z" style="fill:#000; stroke-width:0px;"/><path d="M290.58,318.64c-2.64,0-5.02-.66-7.14-1.98-2.12-1.32-3.78-3.12-4.98-5.4-1.2-2.28-1.8-4.84-1.8-7.68s.6-5.46,1.8-7.74c1.2-2.28,2.86-4.08,4.98-5.4,2.12-1.32,4.5-1.98,7.14-1.98,2.08,0,3.94.42,5.58,1.26,1.64.84,2.95,2.01,3.93,3.51.98,1.5,1.51,3.19,1.59,5.07v10.44c-.08,1.92-.61,3.62-1.59,5.1-.98,1.48-2.29,2.65-3.93,3.51-1.64.86-3.5,1.29-5.58,1.29ZM292.02,311.38c2.2,0,3.98-.73,5.34-2.19,1.36-1.46,2.04-3.35,2.04-5.67,0-1.52-.31-2.87-.93-4.05-.62-1.18-1.48-2.1-2.58-2.76-1.1-.66-2.39-.99-3.87-.99s-2.71.33-3.81.99c-1.1.66-1.96,1.58-2.58,2.76-.62,1.18-.93,2.53-.93,4.05s.31,2.93.93,4.11c.62,1.18,1.48,2.1,2.58,2.76,1.1.66,2.37.99,3.81.99ZM298.98,318.04v-7.8l1.26-7.08-1.26-6.96v-7.14h7.8v28.98h-7.8Z" style="fill:#000; stroke-width:0px;"/><path d="M309.84,318.04l11.82-16.56,4.5,5.34-7.44,11.22h-8.88ZM330.96,318.04l-7.62-11.76-1.62-1.2-11.28-16.02h9.3l7.02,10.62,1.5,1.14,11.94,17.22h-9.24ZM328.56,305.02l-4.62-5.28,6.9-10.68h8.82l-11.1,15.96Z" style="fill:#000; stroke-width:0px;"/></svg>